<svg class="animated" id="freepik_stories-design-community" xmlns="http://www.w3.org/2000/svg" viewBox="0 0 500 500" version="1.1" xmlns:xlink="http://www.w3.org/1999/xlink" xmlns:svgjs="http://svgjs.com/svgjs"><style>svg#freepik_stories-design-community:not(.animated) .animable {opacity: 0;}svg#freepik_stories-design-community.animated #freepik--Shadows--inject-2 {animation: 1s 1 forwards cubic-bezier(.36,-0.01,.5,1.38) fadeIn;animation-delay: 0s;}svg#freepik_stories-design-community.animated #freepik--Plants--inject-2 {animation: 1s 1 forwards cubic-bezier(.36,-0.01,.5,1.38) zoomIn,6s Infinite  linear wind;animation-delay: 0s,1s;}svg#freepik_stories-design-community.animated #freepik--Gears--inject-2 {animation: 1s 1 forwards cubic-bezier(.36,-0.01,.5,1.38) slideDown;animation-delay: 0s;}svg#freepik_stories-design-community.animated #freepik--light-bulb--inject-2 {animation: 1s 1 forwards cubic-bezier(.36,-0.01,.5,1.38) slideDown,1.5s Infinite  linear heartbeat;animation-delay: 0.2s,1.2s;opacity: 0}svg#freepik_stories-design-community.animated #freepik--pen-tool-icon--inject-2 {animation: 1s 1 forwards cubic-bezier(.36,-0.01,.5,1.38) slideDown;animation-delay: 0s;}svg#freepik_stories-design-community.animated #freepik--text-icon--inject-2 {animation: 1s 1 forwards cubic-bezier(.36,-0.01,.5,1.38) slideDown;animation-delay: 0s;}svg#freepik_stories-design-community.animated #freepik--character-3--inject-2 {animation: 1s 1 forwards cubic-bezier(.36,-0.01,.5,1.38) slideRight;animation-delay: 0s;}svg#freepik_stories-design-community.animated #freepik--character-2--inject-2 {animation: 1s 1 forwards cubic-bezier(.36,-0.01,.5,1.38) slideDown;animation-delay: 0s;}svg#freepik_stories-design-community.animated #freepik--character-1--inject-2 {animation: 1s 1 forwards cubic-bezier(.36,-0.01,.5,1.38) slideLeft;animation-delay: 0s;}svg#freepik_stories-design-community.animated #freepik--Shines--inject-2 {animation: 1s 1 forwards cubic-bezier(.36,-0.01,.5,1.38) fadeIn;animation-delay: 0s;}            @keyframes fadeIn {                0% {                    opacity: 0;                }                100% {                    opacity: 1;                }            }                    @keyframes zoomIn {                0% {                    opacity: 0;                    transform: scale(0.5);                }                100% {                    opacity: 1;                    transform: scale(1);                }            }                    @keyframes wind {                0% {                    transform: rotate( 0deg );                }                25% {                    transform: rotate( 1deg );                }                75% {                    transform: rotate( -1deg );                }            }                    @keyframes slideDown {                0% {                    opacity: 0;                    transform: translateY(-30px);                }                100% {                    opacity: 1;                    transform: translateY(0);                }            }                    @keyframes heartbeat {                0% {                    transform: scale(1);                }                10% {                    transform: scale(1.1);                }                30% {                    transform: scale(1);                }                40% {                    transform: scale(1);                }                50% {                    transform: scale(1.1);                }                60% {                    transform: scale(1);                }                100% {                    transform: scale(1);                }            }                    @keyframes slideRight {                0% {                    opacity: 0;                    transform: translateX(30px);                }                100% {                    opacity: 1;                    transform: translateX(0);                }            }                    @keyframes slideLeft {                0% {                    opacity: 0;                    transform: translateX(-30px);                }                100% {                    opacity: 1;                    transform: translateX(0);                }            }        </style><g id="freepik--Floor--inject-2" class="animable" style="transform-origin: 250px 354.36px;"><ellipse id="freepik--floor--inject-2" cx="250" cy="354.36" rx="234.67" ry="135.49" style="fill: rgb(245, 245, 245); transform-origin: 250px 354.36px;" class="animable"/></g><g id="freepik--Shadows--inject-2" class="animable" style="transform-origin: 250.575px 386.875px;"><ellipse id="freepik--Shadow--inject-2" cx="109.03" cy="397.43" rx="61.76" ry="35.05" style="fill: rgb(224, 224, 224); transform-origin: 109.03px 397.43px;" class="animable"/><ellipse id="freepik--shadow--inject-2" cx="395.96" cy="397.22" rx="57.92" ry="32.88" style="fill: rgb(224, 224, 224); transform-origin: 395.96px 397.22px;" class="animable"/><ellipse id="freepik--shadow--inject-2" cx="259.33" cy="376.32" rx="61.76" ry="35.05" style="fill: rgb(224, 224, 224); transform-origin: 259.33px 376.32px;" class="animable"/></g><g id="freepik--Plants--inject-2" class="animable" style="transform-origin: 252.355px 310.422px;"><g id="freepik--plants--inject-2" class="animable" style="transform-origin: 451.403px 312.244px;"><path d="M438.4,349.21l-11.85-6.27s-.9-18.12.51-32.47c2-20.18,17-43.61,32.53-37.9s-7.13,26.24-12.18,43.36S438.4,349.21,438.4,349.21Z" style="fill: rgb(186, 104, 200); transform-origin: 445.608px 310.454px;" id="elavdtyw36qiu" class="animable"/><g id="eli8udgukzim"><path d="M438.4,349.21l-11.85-6.27s-.9-18.12.51-32.47c2-20.18,17-43.61,32.53-37.9s-7.13,26.24-12.18,43.36S438.4,349.21,438.4,349.21Z" style="opacity: 0.3; transform-origin: 445.608px 310.454px;" class="animable"/></g><path d="M432.6,347.11h0a.53.53,0,0,0,.51-.55c-1.52-44.82,20.79-67.37,21-67.6a.52.52,0,0,0-.74-.74c-.23.22-22.87,23.1-21.33,68.38A.53.53,0,0,0,432.6,347.11Z" style="fill: rgb(255, 255, 255); transform-origin: 443.114px 312.589px;" id="eljxalc92yxmm" class="animable"/><path d="M444.48,352.79l-6.16-3.56a68.92,68.92,0,0,1,3.82-29.91c5.71-15.49,20.46-23.94,27.25-21.63,8.29,2.82,8.34,10.75,5.32,16C471.16,319.81,449,335.37,444.48,352.79Z" style="fill: rgb(186, 104, 200); transform-origin: 457.279px 325.052px;" id="el66fb5mtfb9q" class="animable"/><g id="eldc0in7ptqk4"><path d="M444.48,352.79l-6.16-3.56a68.92,68.92,0,0,1,3.82-29.91c5.71-15.49,20.46-23.94,27.25-21.63,8.29,2.82,8.34,10.75,5.32,16C471.16,319.81,449,335.37,444.48,352.79Z" style="opacity: 0.1; transform-origin: 457.279px 325.052px;" class="animable"/></g><path d="M441.23,351.44h0a.52.52,0,0,0,.52-.53c-.12-28.35,26.5-47.5,26.76-47.69a.52.52,0,1,0-.6-.86c-.27.2-27.33,19.67-27.2,48.55A.52.52,0,0,0,441.23,351.44Z" style="fill: rgb(255, 255, 255); transform-origin: 454.724px 326.852px;" id="elzztj1n77qf" class="animable"/></g><g id="freepik--plants--inject-2" class="animable" style="transform-origin: 51.5023px 310.422px;"><path d="M65.18,340.82l7.7-4.4s3.69-20.36.93-37.86c-3.89-24.61-20.64-33.1-26.72-30.65s-7.52,9.73,3.47,23.95C57,300.25,65.38,318,65.18,340.82Z" style="fill: rgb(186, 104, 200); transform-origin: 58.6178px 304.163px;" id="el3mnex4557ap" class="animable"/><g id="elekvqxp2fuok"><g style="opacity: 0.15; transform-origin: 58.6178px 304.163px;" class="animable"><path d="M65.18,340.82l7.7-4.4s3.69-20.36.93-37.86c-3.89-24.61-20.64-33.1-26.72-30.65s-7.52,9.73,3.47,23.95C57,300.25,65.38,318,65.18,340.82Z" id="elsafv86648ss" class="animable" style="transform-origin: 58.6178px 304.163px;"/></g></g><path d="M68,331h-.08a.55.55,0,0,1-.47-.62c3.19-23-6.08-48.27-16.49-58.45a.55.55,0,1,1,.77-.78c10.6,10.36,20,36,16.81,59.38A.55.55,0,0,1,68,331Z" style="fill: rgb(255, 255, 255); transform-origin: 59.9667px 300.979px;" id="elawvu2fkrryt" class="animable"/><path d="M43.8,353.16c-1.21.7-3.72-.83-4.68-1.47a11.68,11.68,0,0,1-3.87-4.44,10.87,10.87,0,0,1-1-6.53,26.23,26.23,0,0,1,.82-3.48c.33-1.12.65-2.25,1-3.37a8.5,8.5,0,0,0,.5-3.41c-.3-2.3-2.34-3.92-4.21-5.32-2.06-1.54-4.2-3.57-4.19-6.35A9.79,9.79,0,0,1,30.63,313c1.33-1.68,2.9-3.17,4.1-4.94a6.8,6.8,0,0,0,1.4-4.32,7,7,0,0,0-.94-2.7,37.82,37.82,0,0,1-2.95-5.41c-.68-1.94-.58-4.36.94-5.75,1.24-1.14,3.09-1.3,4.78-1.19a11,11,0,0,1,4.44,1.57c4.41,2.45,6.93,7.68,11.61,9.56a46.9,46.9,0,0,0,5.67,1.39,7,7,0,0,1,4.67,3.2c1.72,3.43-1.47,7.66-.26,11.3,1.06,3.22,4.2,4.46,6,7.36a7,7,0,0,1,.82,4.22,20.23,20.23,0,0,1-1.78,7.13,50.84,50.84,0,0,1-3.91,6.43C65.1,340.89,44,353.05,43.8,353.16Z" style="fill: rgb(186, 104, 200); transform-origin: 49.5652px 321px;" id="elta331wowom" class="animable"/><path d="M56.31,346.5h0a.55.55,0,0,1-.53-.57c.91-21.81-9.37-45.88-16.84-52.87a.55.55,0,0,1,0-.78.54.54,0,0,1,.77,0c7.62,7.13,18.11,31.6,17.19,53.71A.56.56,0,0,1,56.31,346.5Z" style="fill: rgb(255, 255, 255); transform-origin: 47.8672px 319.31px;" id="elr6xs7qac7k" class="animable"/><path d="M53,320.74l-.16,0a73.26,73.26,0,0,0-15.82-2.55.56.56,0,0,1-.53-.58.52.52,0,0,1,.57-.52,74.58,74.58,0,0,1,16.1,2.6.55.55,0,0,1,.37.68A.55.55,0,0,1,53,320.74Z" style="fill: rgb(255, 255, 255); transform-origin: 45.0207px 318.914px;" id="elqd2v11zpy2h" class="animable"/></g></g><g id="freepik--Gears--inject-2" class="animable" style="transform-origin: 348.625px 79.91px;"><g id="freepik--gears--inject-2" class="animable" style="transform-origin: 348.625px 79.91px;"><g id="freepik--Gear--inject-2" class="animable" style="transform-origin: 371.095px 65.195px;"><path d="M362.4,56.61l-1.87,3.09-1.64,2.35,2.26,7,.87,1.85c.71,1.42,4.35,4.37,5.26,5.62l-.35,2.09,4.68,4.55,1.84-4.38c1.08.67.62,2.61,1.65,2.88l4,4.87,4.37-.51-1.64-6.43a6.68,6.68,0,0,0,2.05-2l4.46,3.65,1.49-5.27-4.16-4.71a21.7,21.7,0,0,0-.27-4.28l3.78-1.17L387,58.8l-4.24-.24a29.72,29.72,0,0,0-2.43-4l.89-5.3-4.68-4.55-1.84,4.38a11.8,11.8,0,0,0-3.17-1.41L369,41.31l-4.37.51,1.64,6.44a6.57,6.57,0,0,0-2.05,2l-4.46-3.66-1.49,5.27Zm5.14,1c1.15-4,2.63-3.65,6.22-.16s5.23,10,4.09,14-2.27,3.25-5.86-.24S366.4,61.61,367.54,57.57Z" style="fill: rgb(224, 224, 224); transform-origin: 374.05px 63.92px;" id="el8we56je01oa" class="animable"/><polygon points="368.96 41.31 363.05 43.95 365.57 50.28 371.49 47.65 368.96 41.31" style="fill: rgb(245, 245, 245); transform-origin: 367.27px 45.795px;" id="el2j4yjan44e2" class="animable"/><polygon points="353.81 49.26 358.27 52.91 364.19 50.28 359.73 46.62 353.81 49.26" style="fill: rgb(245, 245, 245); transform-origin: 359px 49.765px;" id="elgndqlrafyu" class="animable"/><polygon points="352.97 64.68 356.75 63.52 362.67 60.89 358.89 62.05 352.97 64.68" style="fill: rgb(224, 224, 224); transform-origin: 357.82px 62.785px;" id="el7jbyoey613y" class="animable"/><polygon points="383.51 85.97 377.59 88.61 375.95 82.17 381.87 79.54 383.51 85.97" style="fill: rgb(224, 224, 224); transform-origin: 379.73px 84.075px;" id="elfpdanfq4mxv" class="animable"/><polygon points="365.69 85.74 371.61 83.11 373.45 78.73 367.53 81.36 365.69 85.74" style="fill: rgb(224, 224, 224); transform-origin: 369.57px 82.235px;" id="el2h94x9blaaj" class="animable"/><path d="M356.48,59.24a21.7,21.7,0,0,0,.27,4.28L353,64.68l2.26,6.95,4.24.23a29.72,29.72,0,0,0,2.43,4l-.89,5.3,4.69,4.55,1.83-4.38a11.54,11.54,0,0,0,3.17,1.42l2.53,6.33,4.36-.5L376,82.17a6.57,6.57,0,0,0,2.05-2l4.46,3.65L384,78.53l-4.16-4.71a21.7,21.7,0,0,0-.27-4.28l3.78-1.16L381,61.43l-4.24-.23a29.12,29.12,0,0,0-2.43-4l.89-5.3-4.68-4.56-1.84,4.39a11.54,11.54,0,0,0-3.17-1.42L363.05,44l-4.37.5,1.64,6.44a6.57,6.57,0,0,0-2.05,2l-4.46-3.65-1.49,5.26Zm5.15,1c1.14-4,5-4.48,8.57-1s5.59,9.6,4.45,13.64-5,4.49-8.58,1S360.48,64.25,361.63,60.2Z" style="fill: rgb(235, 235, 235); transform-origin: 368.16px 66.54px;" id="elaadcfa2vttw" class="animable"/><polygon points="370.58 47.31 376.5 44.68 381.18 49.23 375.26 51.87 370.58 47.31" style="fill: rgb(245, 245, 245); transform-origin: 375.88px 48.275px;" id="elg3t1cp02r4m" class="animable"/><polygon points="381.18 49.23 380.29 54.53 374.37 57.17 375.26 51.87 381.18 49.23" style="fill: rgb(224, 224, 224); transform-origin: 377.775px 53.2px;" id="elvpl2ux72n5d" class="animable"/><polygon points="376.8 61.2 382.72 58.56 386.96 58.8 381.04 61.43 376.8 61.2" style="fill: rgb(245, 245, 245); transform-origin: 381.88px 59.995px;" id="el8pj78inzcf6" class="animable"/><polygon points="386.96 58.8 389.22 65.74 383.3 68.38 381.04 61.43 386.96 58.8" style="fill: rgb(224, 224, 224); transform-origin: 385.13px 63.59px;" id="elafa12mrh1pa" class="animable"/><polygon points="379.79 73.82 385.71 71.19 389.87 75.9 383.95 78.53 379.79 73.82" style="fill: rgb(245, 245, 245); transform-origin: 384.83px 74.86px;" id="ellog7zqif10m" class="animable"/><polygon points="382.46 83.8 388.38 81.17 389.87 75.9 383.95 78.53 382.46 83.8" style="fill: rgb(224, 224, 224); transform-origin: 386.165px 79.85px;" id="el4kwl18o1hk" class="animable"/><polygon points="363.05 43.95 368.96 41.31 364.6 41.82 358.68 44.45 363.05 43.95" style="fill: rgb(245, 245, 245); transform-origin: 363.82px 42.88px;" id="el6ex8ny8l83m" class="animable"/></g><g id="freepik--gear--inject-2" class="animable" style="transform-origin: 331.575px 87.235px;"><path d="M319.14,79.9a17.86,17.86,0,0,0,0,6.68l-3.27,2.27,4,9,3.71-.88a12.84,12.84,0,0,0,5.12,4.46l-.12,7.79,6.48,4.71,1.42-6.85a11.36,11.36,0,0,0,4.08.84l4.19,8,5.17-2.31-3.14-8.47a11.3,11.3,0,0,0,2.1-3.59l6,3.52.84-8-5.87-5.13A33.83,33.83,0,0,0,348.79,86l4.36-3-4-8.95L344,75.25a34.64,34.64,0,0,0-3.67-4.79l.12-7.79L334,58l-1.42,6.85a11.36,11.36,0,0,0-4.08-.84l-4.19-8-5.17,2.31,3.15,8.47a11.14,11.14,0,0,0-2.11,3.59l-6-3.52-.84,8Zm6.38-.52c.64-6.11,4.08-8,9.05-4.38s8.56,11.55,7.92,17.66-4.16,7.93-9.13,4.32S324.88,85.49,325.52,79.38Z" style="fill: rgb(224, 224, 224); transform-origin: 334.53px 85.965px;" id="el43n8movhr4u" class="animable"/><polygon points="318.4 58.58 324.28 55.96 328.47 63.97 322.59 66.58 318.4 58.58" style="fill: rgb(245, 245, 245); transform-origin: 323.435px 61.27px;" id="eltuxm1fp0hfj" class="animable"/><polygon points="308.23 69.42 314.11 66.81 320.15 70.33 314.26 72.94 308.23 69.42" style="fill: rgb(245, 245, 245); transform-origin: 314.19px 69.875px;" id="eld2y24067w1s" class="animable"/><polygon points="329.19 116.49 335.07 113.88 336.49 107.03 330.61 109.65 329.19 116.49" style="fill: rgb(224, 224, 224); transform-origin: 332.84px 111.76px;" id="el5qpw3d7pay8" class="animable"/><polygon points="349.93 113.58 344.05 116.19 340.9 107.72 346.79 105.1 349.93 113.58" style="fill: rgb(224, 224, 224); transform-origin: 345.415px 110.645px;" id="el6cihhsf9q0s" class="animable"/><path d="M313.26,82.51a33.94,33.94,0,0,0,1.11,5.93l-4.36,3,4,9,5.16-1.22a34.05,34.05,0,0,0,3.67,4.79l-.12,7.8,6.48,4.7,1.42-6.84a11.36,11.36,0,0,0,4.08.84l4.19,8,5.17-2.3-3.15-8.47a11.14,11.14,0,0,0,2.11-3.59l6,3.52.84-8L344,94.56a33.94,33.94,0,0,0-1.11-5.93l4.35-3-4-9-5.16,1.22a34.05,34.05,0,0,0-3.67-4.79l.12-7.8-6.48-4.7-1.42,6.84a11.36,11.36,0,0,0-4.08-.84l-4.19-8-5.17,2.3,3.14,8.47a11.51,11.51,0,0,0-2.11,3.59l-6-3.52-.84,8Zm6.38-.51c.64-6.11,5.19-8.14,10.16-4.53s8.48,11.49,7.84,17.6-5.19,8.14-10.16,4.53S319,88.11,319.64,82Z" style="fill: rgb(235, 235, 235); transform-origin: 328.62px 88.535px;" id="elf2tsybrfzh7" class="animable"/><polygon points="344 75.25 338.12 77.86 343.27 76.65 349.16 74.03 344 75.25" style="fill: rgb(245, 245, 245); transform-origin: 343.64px 75.945px;" id="elv27jn16lf4b" class="animable"/><g id="el7yuae9huceu"><rect x="344.99" y="74.92" width="6.44" height="9.81" style="fill: rgb(245, 245, 245); transform-origin: 348.21px 79.825px; transform: rotate(-23.97deg);" class="animable"/></g><polygon points="353.15 82.99 347.26 85.61 342.91 88.63 348.79 86.02 353.15 82.99" style="fill: rgb(224, 224, 224); transform-origin: 348.03px 85.81px;" id="el2qlcpjivm42" class="animable"/><polygon points="349.9 91.94 344.02 94.56 349.89 99.69 355.77 97.07 349.9 91.94" style="fill: rgb(245, 245, 245); transform-origin: 349.895px 95.815px;" id="el0tkw9vtlgi0i" class="animable"/><polygon points="355.77 97.07 349.89 99.69 349.05 107.65 354.93 105.03 355.77 97.07" style="fill: rgb(224, 224, 224); transform-origin: 352.41px 102.36px;" id="elkjl96mh5s4j" class="animable"/><polygon points="328.09 60.58 333.97 57.96 340.45 62.67 334.57 65.28 328.09 60.58" style="fill: rgb(245, 245, 245); transform-origin: 334.27px 61.62px;" id="el5hsb8xoyrci" class="animable"/></g></g></g><g id="freepik--light-bulb--inject-2" class="animable" style="transform-origin: 260.122px 51.7029px;"><g id="freepik--Idea--inject-2" class="animable" style="transform-origin: 260.122px 51.7029px;"><g id="freepik--Light--inject-2" class="animable" style="transform-origin: 260.21px 57.6147px;"><path d="M263,75.47a2.95,2.95,0,1,1-2.93-3A2.94,2.94,0,0,1,263,75.47Z" style="fill: rgb(55, 71, 79); transform-origin: 260.051px 75.4199px;" id="elukzmfket97" class="animable"/><path d="M256.53,75.62c-1.94-1.14-1.93-3,0-4.08a7.81,7.81,0,0,1,7.06,0c1.95,1.13,1.93,3,0,4.07A7.8,7.8,0,0,1,256.53,75.62Z" style="fill: rgb(69, 90, 100); transform-origin: 260.062px 73.5781px;" id="elqnav39zu0f" class="animable"/><path d="M256.43,74.56c-2-1.18-2-3.06,0-4.21a8,8,0,0,1,7.28.05c2,1.17,2,3,0,4.2A8,8,0,0,1,256.43,74.56Z" style="fill: rgb(55, 71, 79); transform-origin: 260.07px 72.4775px;" id="el2hcz41w65vt" class="animable"/><path d="M256.33,73.46c-2.07-1.21-2.06-3.15,0-4.33a8.28,8.28,0,0,1,7.51,0c2.06,1.21,2.05,3.15,0,4.33A8.26,8.26,0,0,1,256.33,73.46Z" style="fill: rgb(69, 90, 100); transform-origin: 260.081px 71.2962px;" id="el57xp0olg41h" class="animable"/><path d="M256.22,72.33c-2.13-1.25-2.12-3.25,0-4.47a8.55,8.55,0,0,1,7.74,0c2.13,1.25,2.12,3.25,0,4.47A8.53,8.53,0,0,1,256.22,72.33Z" style="fill: rgb(55, 71, 79); transform-origin: 260.09px 70.0962px;" id="elxr33ogucd9" class="animable"/><path d="M256.15,71.14c-2.18-1.27-2.16-3.31,0-4.55a8.73,8.73,0,0,1,7.9,0c2.17,1.27,2.16,3.31,0,4.56A8.71,8.71,0,0,1,256.15,71.14Z" style="fill: rgb(69, 90, 100); transform-origin: 260.098px 68.8687px;" id="elin5nigu0rmr" class="animable"/><path d="M260.3,36.86a14,14,0,0,0-14.12,14c-.06,11.14,9.12,13,9.09,17.53a2.4,2.4,0,0,0,1.4,2,7.58,7.58,0,0,0,6.85,0,2.4,2.4,0,0,0,1.43-2h0c0-4.49,9.23-6.29,9.29-17.42A14,14,0,0,0,260.3,36.86Z" style="fill: rgb(186, 104, 200); transform-origin: 260.21px 54.0337px;" id="ell8mfukx30ah" class="animable"/><g id="ell01l8ijxyjk"><g style="opacity: 0.6; transform-origin: 260.21px 54.0337px;" class="animable"><path d="M260.3,36.86a14,14,0,0,0-14.12,14c-.06,11.14,9.12,13,9.09,17.53a2.4,2.4,0,0,0,1.4,2,7.58,7.58,0,0,0,6.85,0,2.4,2.4,0,0,0,1.43-2h0c0-4.49,9.23-6.29,9.29-17.42A14,14,0,0,0,260.3,36.86Z" style="fill: rgb(255, 255, 255); transform-origin: 260.21px 54.0337px;" id="eldl3t7tdh1nb" class="animable"/></g></g><path d="M257.53,69.72c-1.42-.83-1.41-2.16,0-3a5.7,5.7,0,0,1,5.15,0c1.42.83,1.41,2.16,0,3A5.65,5.65,0,0,1,257.53,69.72Z" style="fill: rgb(186, 104, 200); transform-origin: 260.105px 68.2231px;" id="elenbxxt3tqml" class="animable"/><path d="M262,67.92a.48.48,0,0,1-.47-.47,34.32,34.32,0,0,1,1-8,17.83,17.83,0,0,1,.71-2.23,6.46,6.46,0,0,1-1.21-.6A8.09,8.09,0,0,1,260.19,55a8.37,8.37,0,0,1-1.87,1.56,6.38,6.38,0,0,1-1.22.58,18.76,18.76,0,0,1,.68,2.24,34,34,0,0,1,.94,8,.48.48,0,0,1-.49.46.47.47,0,0,1-.46-.49,34,34,0,0,0-.91-7.77,15.23,15.23,0,0,0-.7-2.23,3,3,0,0,1-2.65-.79,1.53,1.53,0,0,1-.19-2,1.25,1.25,0,0,1,1.3-.53c.75.15,1.47.92,2.09,2.19a5.54,5.54,0,0,0,1.11-.53,7.46,7.46,0,0,0,1.79-1.51,3.51,3.51,0,0,1-.68-2.68,1.34,1.34,0,0,1,2.56,0,3.54,3.54,0,0,1-.71,2.67,7,7,0,0,0,1.77,1.54,5.3,5.3,0,0,0,1.1.54c.63-1.26,1.37-2,2.12-2.17a1.28,1.28,0,0,1,1.29.55,1.54,1.54,0,0,1-.21,2,3,3,0,0,1-2.66.76,16.05,16.05,0,0,0-.73,2.22,33.83,33.83,0,0,0-1,7.76.48.48,0,0,1-.47.49ZM254.36,55c-.08,0-.17,0-.28.18-.23.31,0,.66.13.75a1.87,1.87,0,0,0,1.52.52c-.5-.93-1-1.38-1.3-1.44Zm10.27,1.5a1.91,1.91,0,0,0,1.52-.49c.09-.1.37-.44.14-.76s-.24-.19-.34-.17C265.63,55.17,265.14,55.61,264.63,56.53Zm-4.42-4.94a.33.33,0,0,0-.37.25,2.29,2.29,0,0,0,.36,1.56,2.27,2.27,0,0,0,.37-1.55C260.53,51.69,260.45,51.59,260.21,51.59Z" style="fill: rgb(255, 255, 255); transform-origin: 260.184px 59.2382px;" id="elchxt5ghoi5s" class="animable"/></g><path d="M260.41,31.52a.93.93,0,0,1-.24,0,.92.92,0,0,1-.92-.92V25.86a.92.92,0,0,1,1.83,0v4.78A.92.92,0,0,1,260.41,31.52Z" style="fill: rgb(224, 224, 224); transform-origin: 260.165px 28.2818px;" id="elwxt93unly5" class="animable"/><path d="M250.22,34.25a.92.92,0,0,1-1-.42l-2.39-4.14a.92.92,0,0,1,1.59-.92l2.39,4.14a.92.92,0,0,1-.33,1.25A1,1,0,0,1,250.22,34.25Z" style="fill: rgb(224, 224, 224); transform-origin: 248.832px 31.3153px;" id="eltpz9p1w88f" class="animable"/><path d="M242.76,41.72a.91.91,0,0,1-.7-.09l-4.14-2.39a.92.92,0,0,1-.34-1.25.93.93,0,0,1,1.26-.34L243,40a.92.92,0,0,1,.34,1.25A.9.9,0,0,1,242.76,41.72Z" style="fill: rgb(224, 224, 224); transform-origin: 240.46px 39.6414px;" id="elk7ogeugtabm" class="animable"/><path d="M240,51.92a.93.93,0,0,1-.24,0H235a.92.92,0,1,1,0-1.83h4.78a.92.92,0,0,1,.92.91A.93.93,0,0,1,240,51.92Z" style="fill: rgb(224, 224, 224); transform-origin: 237.342px 51.0064px;" id="el1l6m1zxuxsd" class="animable"/><path d="M282.22,64.48a.92.92,0,0,1-.7-.09L277.38,62a.92.92,0,0,1-.33-1.25.9.9,0,0,1,1.25-.33l4.14,2.38a.93.93,0,0,1,.34,1.26A.94.94,0,0,1,282.22,64.48Z" style="fill: rgb(224, 224, 224); transform-origin: 279.914px 62.4014px;" id="eldegslu900bd" class="animable"/><path d="M238.37,64.48a.91.91,0,0,0,.7-.09L243.21,62a.91.91,0,1,0-.92-1.58l-4.14,2.38a.94.94,0,0,0-.33,1.26A.92.92,0,0,0,238.37,64.48Z" style="fill: rgb(224, 224, 224); transform-origin: 240.682px 62.4044px;" id="el9f76jl6o8wc" class="animable"/><path d="M285.59,51.9a1,1,0,0,1-.24,0h-4.78a.92.92,0,1,1,0-1.83h4.78a.91.91,0,0,1,.91.91A.92.92,0,0,1,285.59,51.9Z" style="fill: rgb(224, 224, 224); transform-origin: 282.907px 50.9861px;" id="elx6aq7wngv6l" class="animable"/><path d="M278.08,41.71a.92.92,0,0,1-.71-1.68l4.14-2.39a.91.91,0,1,1,.92,1.58l-4.14,2.39A1,1,0,0,1,278.08,41.71Z" style="fill: rgb(224, 224, 224); transform-origin: 279.902px 39.6286px;" id="elqzjiqyiq5tt" class="animable"/><path d="M270.61,34.24a.87.87,0,0,1-.7-.09.92.92,0,0,1-.34-1.25L272,28.76a.92.92,0,0,1,1.59.92l-2.39,4.14A.88.88,0,0,1,270.61,34.24Z" style="fill: rgb(224, 224, 224); transform-origin: 271.57px 31.3109px;" id="elqcl4ka40own" class="animable"/></g></g><g id="freepik--pen-tool-icon--inject-2" class="animable" style="transform-origin: 178.845px 89.9572px;"><g id="freepik--pen-tool--inject-2" class="animable" style="transform-origin: 178.845px 89.9572px;"><path d="M192.69,77.43,181.4,114.14l-.77-.45v.9l-5.12-3L164.34,88.18a2,2,0,0,1,0-1.43,71.33,71.33,0,0,0,5.62-21.44,1.69,1.69,0,0,1,.75-1.18l10.44-6a1.5,1.5,0,0,1,1.37,0l3.75,2.17a1.71,1.71,0,0,1,.76,1.17c.7,6.54,2.7,11.38,5.41,14.64A1.6,1.6,0,0,1,192.69,77.43Z" style="fill: rgb(224, 224, 224); transform-origin: 178.473px 86.2772px;" id="ela33perucpv9" class="animable"/><g id="elh76a64h1e2e"><path d="M192.69,77.43,181.4,114.14l-.77-.45v.9l-5.12-3L164.34,88.18a2,2,0,0,1,0-1.43,71.33,71.33,0,0,0,5.62-21.44,1.69,1.69,0,0,1,.75-1.18l10.44-6a1.5,1.5,0,0,1,1.37,0l3.75,2.17a1.71,1.71,0,0,1,.76,1.17c.7,6.54,2.7,11.38,5.41,14.64A1.6,1.6,0,0,1,192.69,77.43Z" style="opacity: 0.05; transform-origin: 178.473px 86.2772px;" class="animable"/></g><path d="M192.69,77.43,181.4,114.14V83.47a5.46,5.46,0,0,0,1.82-3.94c0-1.62-1-2.37-2.2-1.66a5.25,5.25,0,0,0-2.2,4.21c0,1.44.78,2.19,1.81,1.84v30.67L169.45,91.13a2,2,0,0,1,0-1.43,71.62,71.62,0,0,0,5.62-21.44,1.71,1.71,0,0,1,.75-1.18l10.44-6a.47.47,0,0,1,.76.39c.7,6.54,2.7,11.38,5.41,14.64A1.6,1.6,0,0,1,192.69,77.43Z" style="fill: rgb(235, 235, 235); transform-origin: 181.027px 87.7847px;" id="elexz1u8gogvc" class="animable"/><path d="M175.26,67.66a1.44,1.44,0,0,0-.21.6,71.62,71.62,0,0,1-5.62,21.44,2,2,0,0,0-.12.79l-5.12-3a1.91,1.91,0,0,1,.12-.78,71.4,71.4,0,0,0,5.62-21.44,1.64,1.64,0,0,1,.21-.61Z" style="fill: rgb(245, 245, 245); transform-origin: 169.724px 77.575px;" id="elofp6tw4cbsd" class="animable"/><path d="M187,61.33a.46.46,0,0,0-.74-.28l-10.44,6a1.6,1.6,0,0,0-.54.58l-5.12-3a1.56,1.56,0,0,1,.54-.57l10.44-6a1.5,1.5,0,0,1,1.37,0l3.75,2.17A1.76,1.76,0,0,1,187,61.33Z" style="fill: rgb(224, 224, 224); transform-origin: 178.58px 62.7622px;" id="eloxa7oegu2il" class="animable"/><path d="M167.63,54.77l16.54-9.55a1.5,1.5,0,0,1,1.37,0l3.75,2.16a1.51,1.51,0,0,1,.68,1.18v7.29a1.49,1.49,0,0,1-.68,1.18l-16.54,9.55a1.48,1.48,0,0,1-1.36,0l-3.76-2.16a1.54,1.54,0,0,1-.68-1.19V56A1.5,1.5,0,0,1,167.63,54.77Z" style="fill: rgb(235, 235, 235); transform-origin: 178.46px 55.9px;" id="el8e6v5g8q54v" class="animable"/><path d="M190,48.46c-.05-.36-.34-.49-.68-.29l-16.54,9.55a1.39,1.39,0,0,0-.48.51l-5.12-2.95a1.4,1.4,0,0,1,.48-.51l16.54-9.55a1.5,1.5,0,0,1,1.37,0l3.75,2.16A1.59,1.59,0,0,1,190,48.46Z" style="fill: rgb(250, 250, 250); transform-origin: 178.59px 51.6422px;" id="eluygtikucmme" class="animable"/><path d="M172.64,66.64h-.06a.05.05,0,0,1,0,0l-.07,0-.08,0h-.06l-.11,0a1.43,1.43,0,0,1-.83-.16l-3.76-2.16a1.53,1.53,0,0,1-.68-1.18V56a1.4,1.4,0,0,1,.2-.67l5.12,2.95a1.3,1.3,0,0,0-.2.67v7.29c0,.31.15.49.38.49l.09,0Z" style="fill: rgb(230, 230, 230); transform-origin: 169.815px 61.03px;" id="eljv0bmrecwx" class="animable"/><path d="M180.63,114.59l-5.12-3L164.34,88.18a1.83,1.83,0,0,1-.15-.65l5.12,3a1.88,1.88,0,0,0,.14.65Z" style="fill: rgb(224, 224, 224); transform-origin: 172.41px 101.06px;" id="ell4alp6uepb" class="animable"/><g id="el5pwzmtzkzt"><path d="M181.4,83.47v30.67l-.77-.45V83.92c-1,.35-1.81-.4-1.81-1.84V82Z" style="opacity: 0.15; transform-origin: 180.11px 98.07px;" class="animable"/></g><path d="M205.05,74.65c0-.83-.59-1.17-1.31-.75a2.87,2.87,0,0,0-1.31,2.26c0,.67.39,1,.92.9-.74,15.41-11.52,33.56-24.68,41.16C172.14,122,166,122.61,161.42,120c-4.34-2.5-6.83-7.65-7.09-14.57a2.93,2.93,0,0,0,.93-2c0-.83-.59-1.17-1.31-.75a2.87,2.87,0,0,0-1.3,2.26c0,.71.42,1.06,1,.88.35,7,2.95,12.19,7.42,14.77a13.18,13.18,0,0,0,6.66,1.71A22.94,22.94,0,0,0,179,118.82c13.46-7.77,24.47-26.43,25-42.14A3,3,0,0,0,205.05,74.65Z" style="fill: rgb(224, 224, 224); transform-origin: 178.85px 98.0104px;" id="ele3nv1as7wpt" class="animable"/><path d="M203.74,102.71a2.88,2.88,0,0,0-1.25,1.83l-47.3,27.3c-.17-.51-.65-.67-1.24-.33a2.87,2.87,0,0,0-1.3,2.26c0,.83.58,1.17,1.3.75a2.89,2.89,0,0,0,1.27-1.89l47.27-27.29c.15.55.65.73,1.25.38a2.89,2.89,0,0,0,1.31-2.26C205.05,102.63,204.46,102.29,203.74,102.71Z" style="fill: rgb(224, 224, 224); transform-origin: 178.85px 118.615px;" id="elk1u9hj24928" class="animable"/><path d="M155.78,104.14a1.86,1.86,0,1,1-1.86-1.85A1.86,1.86,0,0,1,155.78,104.14Z" style="fill: rgb(224, 224, 224); transform-origin: 153.92px 104.15px;" id="elss07e0566t" class="animable"/><path d="M155.71,133a1.86,1.86,0,1,1-1.86-1.86A1.86,1.86,0,0,1,155.71,133Z" style="fill: rgb(224, 224, 224); transform-origin: 153.85px 133px;" id="elvpyhk63u3tk" class="animable"/><path d="M205.7,104.26a1.86,1.86,0,1,1-1.85-1.86A1.85,1.85,0,0,1,205.7,104.26Z" style="fill: rgb(224, 224, 224); transform-origin: 203.84px 104.26px;" id="el2dm7eacjabk" class="animable"/><path d="M205.53,75.37a1.86,1.86,0,1,1-1.86-1.86A1.85,1.85,0,0,1,205.53,75.37Z" style="fill: rgb(224, 224, 224); transform-origin: 203.67px 75.37px;" id="elr8glltd2o6q" class="animable"/></g></g><g id="freepik--text-icon--inject-2" class="animable" style="transform-origin: 136.885px 63.44px;"><g id="freepik--text-icon--inject-2" class="animable" style="transform-origin: 136.885px 63.44px;"><path d="M150.24,36.46V51.87l-1.4.79V47.8c0-2.62-2.14-3.52-4.77-2l-6.54,3.78v23c0,3,1.86,4.43,4.15,3.11l4.07-2.35,0,0,4.45,2.57L128,88.75,125,87l-1.45.84V86.18l4.11-2.37c2.29-1.33,4.15-4.86,4.15-7.9v-23l-6.54,3.78c-2.63,1.52-4.77,4.87-4.77,7.49V69l-1.4.83V54.44Z" style="fill: rgb(224, 224, 224); transform-origin: 134.67px 62.605px;" id="el64d2i8uxvqh" class="animable"/><polygon points="153.29 55.23 148.84 52.66 148.84 44.97 153.29 45.82 153.29 55.23" style="fill: rgb(224, 224, 224); transform-origin: 151.065px 50.1px;" id="elalab29wb3sw" class="animable"/><path d="M154.69,39V54.44l-1.4.79V50.36c0-2.62-2.14-3.51-4.77-2L142,52.15v23c0,3,1.86,4.43,4.15,3.11l4.11-2.37v1.67L128,90.42V88.75l4.1-2.37c2.29-1.33,4.15-4.86,4.15-7.9v-23l-6.54,3.78c-2.63,1.52-4.76,4.87-4.76,7.49v4.86l-1.4.84V57Z" style="fill: rgb(240, 240, 240); transform-origin: 139.12px 64.71px;" id="el11kfsm5w6qe" class="animable"/><polygon points="150.24 36.46 154.69 39.03 123.53 57.01 119.08 54.44 150.24 36.46" style="fill: rgb(250, 250, 250); transform-origin: 136.885px 46.735px;" id="eltmtf4cmw8rp" class="animable"/><polygon points="119.08 54.44 123.53 57.01 123.53 72.43 119.08 69.86 119.08 54.44" style="fill: rgb(235, 235, 235); transform-origin: 121.305px 63.435px;" id="eljk3r2zt1shl" class="animable"/><polygon points="123.53 86.18 127.99 88.75 127.99 90.42 123.53 87.85 123.53 86.18" style="fill: rgb(235, 235, 235); transform-origin: 125.76px 88.3px;" id="elwdrtzrr368g" class="animable"/></g></g><g id="freepik--character-3--inject-2" class="animable" style="transform-origin: 401.425px 255.245px;"><g id="freepik--Character--inject-2" class="animable" style="transform-origin: 401.425px 255.245px;"><path d="M351.08,205c-.63-4.38,8.66-28.37,13.76-39.63,4.47-9.88,7.86-9.31,15.58-9.74l.17,16.94-15.45,32.61" style="fill: rgb(255, 168, 167); transform-origin: 365.82px 180.405px;" id="elhwyysc1gogl" class="animable"/><path d="M399.77,155.41l9.58.76c-2.17,12.84,6.23,25.08,6.23,25.08l-5.7,17.58c.15,2.33,6.91,10.43,9.93,20.78-7,9.42-35.57,12.73-46.83,4.46.06-5.78-.18-13.8.16-17.17l-1.91-16.5c-14.11-11.58,2.92-29.22,9.19-34.82h5.87Z" style="fill: rgb(186, 104, 200); transform-origin: 392.796px 192.098px;" id="elr5dzqufi33l" class="animable"/><g id="elgj1ijrvh5ek"><path d="M399.77,155.41l9.58.76c-2.17,12.84,6.23,25.08,6.23,25.08l-5.7,17.58c.15,2.33,6.91,10.43,9.93,20.78-7,9.42-35.57,12.73-46.83,4.46.06-5.78-.18-13.8.16-17.17l-1.91-16.5c-14.11-11.58,2.92-29.22,9.19-34.82h5.87Z" style="fill: rgb(255, 255, 255); opacity: 0.6; transform-origin: 392.796px 192.098px;" class="animable"/></g><path d="M429.56,368.54s2.73-32,.64-47.14c-1.79-13-3.89-18.44-4.27-21.4,0,0-3.21-30.6-3.48-56.61-.12-12.34-1.2-25.89-10.45-40.13l-.33-.56c-.63,4.79-7.86,8.11-14.39,9.06-6.28.91-14.19-.09-23.68-3-1.68,12.39-3.28,35.95-4.85,61.63-.77,12.55-.22,23.07-.16,31.12.08,10.92,2.69,59.51,2.69,59.51l0,1.8c0,2-.43,3.39-1.72,6.6a38.64,38.64,0,0,1-6.83,11.31c-.91,1-7.2,6.48-8,7.65-2.7,3.16,2.89,4.93,7.05,4.38,4.39-.59,11.2-2.25,13.13-4.93,1.29-1.77,2.26-8,3.58-9.81,4.46-6.09,6.3-8.7,6.33-10.65.06-3.51-1.15-4.9-1.58-6.88.36-4.15,7.83-31.88,8-43.95.07-5.75-1.54-15.9-1.54-15.9l6-42.13c2,11.72,6,38.16,7.42,46.57,1.93,11.58,8.52,36.93,12.66,52.26,1.55,5.76,2.31,8.33,2.77,12.11l.13,1.35c.1,1.72.84,20,1.52,23.89,1.42,8.06,8.59,7,9.74.53,1-5.56-.25-22.74-.28-24.85Z" style="fill: rgb(255, 168, 167); transform-origin: 392.504px 301.553px;" id="el8lt9rq3stll" class="animable"/><path d="M429.79,368.43c2,0,.69,7.86,1.21,12.9.56,5.4,2.33,9.34,2.84,13.77.58,5.06.13,7.18-1.69,11.33-1.41,3.24-8.5,7.67-11.19,3s-3.27-9.9-3-14.94c.32-5.21.63-9,.74-13,.09-3.49-2.6-11.69,0-12.19l.13,1.36c.94,1.88,9.92,3.18,11-.44Z" style="fill: rgb(55, 71, 79); transform-origin: 425.821px 389.943px;" id="elg7hg55ap9m6" class="animable"/><path d="M385.49,371.55c.62,2.52,0,9.44,0,9.44s-1.1,2.39-5,4l-1.75-9.62Z" style="fill: rgb(38, 50, 56); transform-origin: 382.253px 378.27px;" id="elpt6m0c7fega" class="animable"/><polygon points="380.48 384.96 371.9 382.15 369.83 374.53 379.47 379.41 380.48 384.96" id="elzam55500m5" class="animable" style="transform-origin: 375.155px 379.745px;"/><path d="M371.56,362.74l-.05-1.8c-1.16.57-3.73,10-7.2,16.39-3.16,5.88-9.44,9.16-11.48,11.72-2.72,3.42,2.57,7.83,11.08,6,4.22-.9,10.61-3.6,12.34-6.45s2.32-8.08,3.74-10.17,4.78-4.51,5.5-6.89a13,13,0,0,0,0-6.58c-.67-2.17-1.25-4.79-2-4.56l-.05,1.65c-.57,1.16-2.62,2.51-6.92,2.75C374.47,364.92,372.49,364.6,371.56,362.74Z" style="fill: rgb(55, 71, 79); transform-origin: 369.012px 377.932px;" id="elvik8r9mop77" class="animable"/><path d="M373.14,206.9s2.6,4.2,19.6,3.61,18.91-7.89,18.91-7.89a94.07,94.07,0,0,1,8.16,13.52c3,6.51,4.44,16.3,4.9,31s2.35,53.35,2.35,53.35,2.42,8.93,3.18,13.78c0,0-6.23,8.06-23.86,5.31a90.78,90.78,0,0,1-4-14.4C401.47,299.11,396,260,396,260l-4.82,41.4s2.08,11.87.53,19.15c0,0-11.94,5.06-22.8-1,0,0-1.13-20.48-1.05-28.53.08-9.45.26-17.7,1.44-38.89C370.14,236.21,373.14,206.9,373.14,206.9Z" style="fill: rgb(69, 90, 100); transform-origin: 399.048px 262.575px;" id="elzig84liwcla" class="animable"/><path d="M396,260l-4.64-26.71s-6,0-12.22-5.85c0,0,1.1,6,9.2,9.08L394,260.17l-2.12,35.19Z" style="fill: rgb(55, 71, 79); transform-origin: 387.57px 261.4px;" id="elvyqzhealr6m" class="animable"/><path d="M409.35,156.17a11.38,11.38,0,0,1,12.38,6c2.26,4.53,17.32,30.57,20.62,37.81.9,2-2.72,13.52-8.88,10.33s-18.41-27.44-18.41-27.44S402.55,168.77,409.35,156.17Z" style="fill: rgb(255, 168, 167); transform-origin: 424.906px 183.406px;" id="elhev3dryu5lu" class="animable"/><g id="el6df6w7hg5o"><g style="opacity: 0.25; transform-origin: 418.435px 167.42px;" class="animable"><path d="M423.06,167.32a.07.07,0,0,0-.06.07s0,0,0,0a1.07,1.07,0,0,0,.3,1,1.16,1.16,0,0,0,.83.37.65.65,0,0,0,.2,0,.06.06,0,0,0,.06,0s0,0,0,0h0a1.08,1.08,0,0,0-.28-1A1.19,1.19,0,0,0,423.06,167.32Zm.29.83a1.54,1.54,0,0,1-.16-.53v-.05l.16.11a1.51,1.51,0,0,1,.44.36,2.55,2.55,0,0,1,.26.38l.09.15A.92.92,0,0,1,423.35,168.15Zm.06-.64a.73.73,0,0,1,.54.24,1.08,1.08,0,0,1,.22.5A1.87,1.87,0,0,0,423.41,167.51Z" id="elpvtxgy4hjqj" class="animable" style="transform-origin: 423.696px 168.041px;"/><path d="M424.7,167.63a1.2,1.2,0,0,1-.37-.15l.25-.06-.09-.17-.07,0,.06,0-.11-.2a1,1,0,0,0-.32.35.1.1,0,0,0,.05.12h0a.84.84,0,0,0,.72.37C424.78,167.79,424.74,167.71,424.7,167.63Z" id="el06bwyww79pz" class="animable" style="transform-origin: 424.433px 167.47px;"/><path d="M415.57,172.57a0,0,0,0,0,0,0v.06l0,0h.17a1.5,1.5,0,0,0,1.13-.63.83.83,0,0,0,.14-.85h0a.11.11,0,0,0-.09-.11h-.1a1.44,1.44,0,0,0-1.07.57,1,1,0,0,0-.22.89h0Zm1.33-1.19a1.24,1.24,0,0,1-.35.78,1.2,1.2,0,0,1-.7.33,5.23,5.23,0,0,1,.41-.55,5.93,5.93,0,0,1,.53-.47Zm-.91.43a1.19,1.19,0,0,1,.75-.51,3.49,3.49,0,0,0-.93.86A1.3,1.3,0,0,1,416,171.81Z" id="elg2h9qlmpo2r" class="animable" style="transform-origin: 416.286px 171.835px;"/><path d="M417.59,170.27a0,0,0,0,0,0,0,.07.07,0,0,0-.09,0,1.08,1.08,0,0,0-.35,1,1.16,1.16,0,0,0,.68.88h.09a.07.07,0,0,0,.06,0,1,1,0,0,0,.3-.91A1.29,1.29,0,0,0,417.59,170.27Zm-.26.83a.83.83,0,0,1,.07-.32,2.21,2.21,0,0,0,.26,1A1,1,0,0,1,417.33,171.1Zm.58.73-.06-.14a1.91,1.91,0,0,1-.19-.5,2.17,2.17,0,0,1,0-.44,1.13,1.13,0,0,0,0-.26,1.26,1.26,0,0,1,.43.59A1,1,0,0,1,417.91,171.83Z" id="eljajt1et0ica" class="animable" style="transform-origin: 417.715px 171.205px;"/><path d="M415.18,171.44h0a1.86,1.86,0,0,1,.33,0,1.61,1.61,0,0,0,.48-.08,1.89,1.89,0,0,0,.8-.61,2.25,2.25,0,0,0,.49-1.13,1.74,1.74,0,0,0,.38.29,1.59,1.59,0,0,0,.22.55,1.86,1.86,0,0,0,1.55.8l.16,0a.77.77,0,0,0,.64.3h0a1.93,1.93,0,0,0,1.51-.72.37.37,0,0,0,0-.27,1.13,1.13,0,0,0,.4-.18,2.56,2.56,0,0,0,.72-2.59,1.08,1.08,0,0,0-.48-.58,1,1,0,0,0,0-.42,2.09,2.09,0,0,0,1.15.27h.29a1.8,1.8,0,0,0,.39-.08l-.12-.22a2.09,2.09,0,0,1-.52.09h-.11a1.94,1.94,0,0,1-1.06-.24h0c.06-.55.86-.5,1.34-.46l-.12-.22a2,2,0,0,0-.55,0,2.3,2.3,0,0,0-.28.06.59.59,0,0,1,0-.14.52.52,0,0,1,.1-.18.57.57,0,0,1,.36-.11l.17,0-.12-.2-.09,0a1.37,1.37,0,0,0-.28.05,1.12,1.12,0,0,1,.27-.26c-.17-.32-.34-.62-.5-.91a.51.51,0,0,0,0,.13,1,1,0,0,0,.36.62h0a.42.42,0,0,1-.44-.57.5.5,0,0,1,.11-.19l-.13-.23a.86.86,0,0,0-.13.2,1,1,0,0,0-.29.09,1.07,1.07,0,0,1,.29-.54l-.15-.28v0a.15.15,0,0,1,0-.06q-.19-.35-.33-.63a3.38,3.38,0,0,0,.2.72,1.26,1.26,0,0,1-.33-1c-.05-.1-.11-.21-.15-.3l0,0a1.16,1.16,0,0,0-.07.42,1.49,1.49,0,0,0,.52,1.07s-.05.11-.08.16a1.13,1.13,0,0,0-1.31-.72.06.06,0,0,0,0,.06v0a1.05,1.05,0,0,0,.29,1,1.19,1.19,0,0,0,.84.38h.05l-.06.1a.86.86,0,0,0-.48.31.58.58,0,0,0-.1.4,1,1,0,0,0-1,.15l-.3-.1a1.92,1.92,0,0,0-1.52.41,2.21,2.21,0,0,0-.92,1.37,1.19,1.19,0,0,0-.58.59.56.56,0,0,0-.44-.22h0a.81.81,0,0,0-.56.22h-.09a1,1,0,0,0,.22-.82,1.25,1.25,0,0,0-.67-.93,0,0,0,0,1,0,0,.07.07,0,0,0-.1,0,1.06,1.06,0,0,0-.34,1,1.08,1.08,0,0,0,.26.55l-.2,0h0a1.4,1.4,0,0,0-.56-1,1.08,1.08,0,0,0-1-.23h0a0,0,0,0,1,0,0s0,0,0,0h0a1.52,1.52,0,0,0,.69,1.28.9.9,0,0,0,.24.12h0l-.21.1a1.52,1.52,0,0,0-.81.84.5.5,0,0,0,.11.37.74.74,0,0,0-.26.24.6.6,0,0,0-.07.35.57.57,0,0,0-.25.37.52.52,0,0,0,.14.46s.1.07.15.11l.09.05a1.09,1.09,0,0,1,.1.11,1.16,1.16,0,0,0-.78.05,1,1,0,0,0-.6.78,0,0,0,0,0,0,0l0,0a.12.12,0,0,0,.05.09,1,1,0,0,0,.59.18,1.15,1.15,0,0,0,.44-.09,1.13,1.13,0,0,0,.67-.73h0a1.63,1.63,0,0,0,.51.42,1.42,1.42,0,0,0,.62.16.87.87,0,0,0,.44-.13Zm5.89-7.57a1.47,1.47,0,0,1-.16-.53v-.05l.15.11a1.55,1.55,0,0,1,.45.36,1.92,1.92,0,0,1,.25.38,1.3,1.3,0,0,0,.1.15A.88.88,0,0,1,421.07,163.87Zm.06-.64a.84.84,0,0,1,.54.24,1.08,1.08,0,0,1,.22.5A2,2,0,0,0,421.13,163.23Zm-.9,5.56c.27.08.44.19.48.31a.24.24,0,0,1,0,.24.9.9,0,0,1-.62.26h0a1,1,0,0,1-.84-.63,1,1,0,0,1-.08-.62c0-.22.1-.29.26-.29h0c.17,0,.19.06.24.18a1.17,1.17,0,0,1,0,.11A.76.76,0,0,0,420.23,168.79Zm-.31-.6c.16-.08.32-.16.47,0a.23.23,0,0,1,.1.26.26.26,0,0,1-.09.16l0,.05-.12,0a.83.83,0,0,1-.33-.39Zm0,1.61h.14a1.12,1.12,0,0,0,.81-.36.43.43,0,0,0,.06-.37,1,1,0,0,0,.49-.81,1,1,0,0,1,.31.95,1.13,1.13,0,0,1-.91.82l-.24.09a1.19,1.19,0,0,1-.74.13.74.74,0,0,1-.62-.75A1,1,0,0,0,420,169.8Zm1.83-1.55a1,1,0,0,0-.31-.27h-.05a.66.66,0,0,0,0-.14,1.22,1.22,0,0,0-1-.85,1.79,1.79,0,0,0-1.12.13,1,1,0,0,1,.41-.56,1.65,1.65,0,0,1,1.41-.1l.1,0a.74.74,0,0,1,.33.17.84.84,0,0,1,.07.32,1,1,0,0,0,0,.25l.09.24A.9.9,0,0,1,421.79,168.25Zm-1.77-1.1h0a1.09,1.09,0,0,1,1.19.85.83.83,0,0,1-.34.86.57.57,0,0,0-.27-.16.35.35,0,0,0,.09-.17.51.51,0,0,0-.14-.5.61.61,0,0,0-.45-.14.47.47,0,0,0-.3.14l-.05-.09a.44.44,0,0,0-.26-.17.42.42,0,0,0-.46.12.75.75,0,0,0-.09.15.71.71,0,0,1,.11-.44A1.18,1.18,0,0,1,420,167.15Zm-1,.15h0l-.06.05a.8.8,0,0,0-.1,1,1.33,1.33,0,0,0,.05.61,1.07,1.07,0,0,0,.16.32.56.56,0,0,0-.08.27,1.82,1.82,0,0,1-1-.6c-.25-.27-.17-.52-.09-.81,0,0,0-.1.05-.15l0-.14a1.34,1.34,0,0,1,.48-.87,1.09,1.09,0,0,1,.7-.18A.83.83,0,0,0,419,167.3Zm-.34,3.5a1.51,1.51,0,0,1-.76-.89,1.71,1.71,0,0,1,0-.45,1.22,1.22,0,0,0,0-.27,1.72,1.72,0,0,0,1.13.61h0a.94.94,0,0,0,.35.48,1,1,0,0,0,.62.2,1.8,1.8,0,0,0,.56-.11A1.41,1.41,0,0,1,418.68,170.8Zm2.29.3a1.45,1.45,0,0,1-1.09.06,1.38,1.38,0,0,0,1-.83v0a1.19,1.19,0,0,0,.63.23A1,1,0,0,1,421,171.1Zm1.56-3.53a2.06,2.06,0,0,1-.6,2.56,1.07,1.07,0,0,1-.73.05.87.87,0,0,0,.49-.24,1.73,1.73,0,0,0,.36-.84,1.23,1.23,0,0,0-.12-.63c.32-.31.14-.85.08-1s-.05-.16-.07-.23A.87.87,0,0,1,422.53,167.57Zm-.51-2.7a.74.74,0,0,1,.42-.55,1,1,0,0,0,0,.16.73.73,0,0,0,.39.57l.07,0a.82.82,0,0,0-.25.73,1.22,1.22,0,0,1-.15-.17,1.24,1.24,0,0,0-.14-.18l-.13-.11A.42.42,0,0,1,422,164.87Zm-.42.1a.48.48,0,0,1,.17-.12,1,1,0,0,0,0,.18.58.58,0,0,0,.27.46l.1.08a2.61,2.61,0,0,1,.17.2.76.76,0,0,0,.31.25.75.75,0,0,0-.27.26,2.1,2.1,0,0,0-.78-.86h0A.4.4,0,0,1,421.6,165Zm.3,1.1a1.53,1.53,0,0,1,.3,1,1.55,1.55,0,0,0-.31,0h0l0-.11s0-.08,0-.11a.48.48,0,0,0-.09-.26.52.52,0,0,0-.27-.2,4.42,4.42,0,0,0-.51-.16,1.73,1.73,0,0,0-.52-.58A1.27,1.27,0,0,1,421.9,166.07Zm-3.7.16a2,2,0,0,1,1.6-.68,1.2,1.2,0,0,1,.83.56,1.48,1.48,0,0,0-.75.08,1.42,1.42,0,0,0-.6.44c-.16-.13-.42-.06-.57,0a1.37,1.37,0,0,0-.95,1v0A1.47,1.47,0,0,1,418.2,166.23Zm-.73,1.17a1.34,1.34,0,0,0,.18.58,1.07,1.07,0,0,0,0,.94,1.28,1.28,0,0,1,0,.39c0,.08,0,.17,0,.26l-.13-.17a1.42,1.42,0,0,1-.49-1A1.33,1.33,0,0,1,417.47,167.4Zm-.39,1.89h0a1.94,1.94,0,0,1-.56,1.34,1.53,1.53,0,0,1-.89.52l-.21,0h-.06l.1-.14c.16-.22.33-.45.47-.69.05-.08.1-.18.14-.26a2.79,2.79,0,0,1,.26-.45,1.05,1.05,0,0,1,.67-.36Zm-2.29-.36h0a.28.28,0,0,0,.23-.21.41.41,0,0,0-.11-.33.42.42,0,0,1,.23.19,1,1,0,0,1,.08.33.5.5,0,0,0,0,.12.66.66,0,0,0-.17.12.78.78,0,0,0-.35-.14l-.11,0a.23.23,0,0,1-.17-.12.22.22,0,0,1,0-.19c0-.1.14-.22.24-.23h0a.09.09,0,0,1,.07,0,.23.23,0,0,1,.06.13.25.25,0,0,1-.08.17l0,0a.11.11,0,0,0,0,.08S414.77,168.93,414.79,168.93Zm.68-.06h0a1,1,0,0,0-.28-.56.94.94,0,0,0-.24-.13l.05,0a.52.52,0,0,1,.39.12.4.4,0,0,1,.16.38A.44.44,0,0,1,415.47,168.87Zm.42.18a.79.79,0,0,0-.15.12l0,.05a1.78,1.78,0,0,1-.54.39l0,0-.26.15a1.22,1.22,0,0,1,.26-.38A1.18,1.18,0,0,1,415.89,169.05Zm-1.22.14a.61.61,0,0,1,.27.1,1.43,1.43,0,0,0-.14.2.79.79,0,0,0-.45-.18h0a.48.48,0,0,1-.13-.49.34.34,0,0,0,.13.25A.81.81,0,0,0,414.67,169.19Zm-.63-.54a.55.55,0,0,0-.06.4s0,.11.08.18c-.17-.07-.28-.17-.29-.3a.55.55,0,0,1,.33-.48.47.47,0,0,1,.23,0A.63.63,0,0,0,414,168.65Zm.09.85a1,1,0,0,0,.18,0,.46.46,0,0,1,.38.14h0q-.07.2-.15.42h-.09a.6.6,0,0,0-.24-.3l-.15-.09a.78.78,0,0,1-.24-.16.54.54,0,0,1-.11-.23l0,0A1,1,0,0,0,414.13,169.5Zm.38.81a1.71,1.71,0,0,1,.64.08l-.12.06a.72.72,0,0,1-.49.1,1.22,1.22,0,0,1-.28-.14l-.1-.06A2.68,2.68,0,0,1,414.51,170.31Zm.59-.11-.28-.08a1.59,1.59,0,0,1,.43-.3,2.88,2.88,0,0,0,.29-.16,1.22,1.22,0,0,0,.27-.23c.15-.16.28-.28.49-.24a.28.28,0,0,1,.1.09.78.78,0,0,0-.15.1,1.72,1.72,0,0,0-.34.53l-.1.19-.12.18A1.42,1.42,0,0,1,415.1,170.2Zm1.3-2.5a.35.35,0,0,1,.4.2l0,0a1.2,1.2,0,0,0-.05.33,2,2,0,0,0,.2.83,1.27,1.27,0,0,0-.26,0,.91.91,0,0,0-.06-.4.94.94,0,0,1-.06-.29.63.63,0,0,0-.28-.56,1.19,1.19,0,0,0-.16-.08A.85.85,0,0,1,416.4,167.7Zm-.16.46a.48.48,0,0,1,.08.28,1.48,1.48,0,0,0,0,.19l.06.19a.83.83,0,0,1,.06.21,1,1,0,0,0-.74-.18.37.37,0,0,0,0-.14.71.71,0,0,0-.36-.63l-.06,0C415.68,167.9,416,167.84,416.24,168.16Zm-.42-1.38a1,1,0,0,1-.14.74.61.61,0,0,0-.07-.14,2.3,2.3,0,0,1-.18-.5,2.12,2.12,0,0,1,0-.44,2.35,2.35,0,0,0,0-.26A1.24,1.24,0,0,1,415.82,166.78Zm-.72,0a.88.88,0,0,1,.07-.33,2.15,2.15,0,0,0,.26,1A1,1,0,0,1,415.1,166.8Zm-.77-.16a1.13,1.13,0,0,1,.42.7,3.29,3.29,0,0,0-.93-.93A1,1,0,0,1,414.33,166.64Zm-.4.56a1.2,1.2,0,0,1-.41-.76,4.73,4.73,0,0,1,1.15,1A1.1,1.1,0,0,1,413.93,167.2Zm-.06.85a1.74,1.74,0,0,1,1.47-.25,1,1,0,0,0-.22.19.79.79,0,0,0-.46.06.37.37,0,0,0-.15.26h0a.5.5,0,0,0-.33-.09.73.73,0,0,0-.67.51.41.41,0,0,0,0,.16h0C413.34,168.48,413.7,168.17,413.87,168.05Zm-.45,1.11v0a.7.7,0,0,0,.23.53.59.59,0,0,0,.26.17,1.5,1.5,0,0,1,.35.22h0a.69.69,0,0,0-.38-.08.64.64,0,0,1-.28,0,.48.48,0,0,1-.36-.5A.42.42,0,0,1,413.42,169.16Zm-.9,1.73a.78.78,0,0,1,.61-.07,1.91,1.91,0,0,0-.93.38A1.18,1.18,0,0,1,412.52,170.89Zm.42.57a.91.91,0,0,1-.82.08l.1-.08a3.42,3.42,0,0,1,.51-.33,1.89,1.89,0,0,1,.41-.1l.22-.05A1.47,1.47,0,0,1,412.94,171.46Zm.49-1a.49.49,0,0,0,0,.12,1.8,1.8,0,0,0-.19-.2l-.07,0c-.15-.12-.27-.21-.21-.43a.33.33,0,0,1,.07-.13h0a.75.75,0,0,0,.47.41.71.71,0,0,0,.2,0A.43.43,0,0,0,413.43,170.47Zm1.6.76a1,1,0,0,1-1.28-.5.2.2,0,0,1,0-.2.6.6,0,0,1,.55.14.72.72,0,0,0,.36.13h0a1.26,1.26,0,0,0,.5-.15,1.23,1.23,0,0,1,.37-.12l-.38.53Z" id="els366wmkrgw" class="animable" style="transform-origin: 418.13px 167.045px;"/></g></g><g id="freepik--Pencil--inject-2" class="animable" style="transform-origin: 401.425px 218.274px;"><path d="M336.79,280.66l2.23-2.84,2.68-3.44L451.55,134.13c-.09,2.88,2.73,7.4,7.11,11.07,5.11,4.27,11.29,6.78,14.57,5.65L364.08,290.19l-5.14,6.56C362,292.32,340,276.26,336.79,280.66Z" style="fill: rgb(186, 104, 200); transform-origin: 405.01px 215.44px;" id="elaxh05h8s1ct" class="animable"/><g id="elere74qirpop"><path d="M336.79,280.66l2.23-2.84,2.68-3.44L451.55,134.13c-.09,2.88,2.73,7.4,7.11,11.07,5.11,4.27,11.29,6.78,14.57,5.65L364.08,290.19l-5.14,6.56C362,292.32,340,276.26,336.79,280.66Z" style="opacity: 0.2; transform-origin: 405.01px 215.44px;" class="animable"/></g><path d="M344.52,270.74l-4.93,6.38c-1.49,1.8,1.53,6,5.76,10,5.6,5.24,13.33,9.93,15.31,7.54l3.65-4.69,1.27-1.7c-2,2.38-9.71-2.31-15.32-7.54-4-3.78-7-7.85-5.87-9.75v0A.55.55,0,0,1,344.52,270.74Z" style="fill: rgb(235, 235, 235); transform-origin: 352.392px 283.02px;" id="ellxwfrk5s99" class="animable"/><path d="M343.31,272.34c-3.48,4.18,17.59,21.68,21.06,17.51l5-6.38c-3.48,4.18-24.53-13.32-21.06-17.5Z" style="fill: rgb(186, 104, 200); transform-origin: 356.147px 278.229px;" id="elvknri5mrdci" class="animable"/><g id="elkpvm9bgav9c"><path d="M343.31,272.34c-3.48,4.18,17.59,21.68,21.06,17.51l5-6.38c-3.48,4.18-24.53-13.32-21.06-17.5Z" style="fill: rgb(255, 255, 255); opacity: 0.6; transform-origin: 356.147px 278.229px;" class="animable"/></g><path d="M353,259.9l-4.9,6.29c-3.44,4.08,16.73,21.17,20.78,17.87a.72.72,0,0,0,.22-.21l4.89-6.37C370.43,281.56,349.49,264,353,259.9Z" style="fill: rgb(235, 235, 235); transform-origin: 360.849px 272.19px;" id="elrjbndsu3he" class="animable"/><path d="M481.22,121c-3.46-2.12-3.84-3.7-3.84-3.7l-25.82,16.88c-1.07,5.38,3.56,11.54,9.4,14.9l1-1.19Z" style="fill: rgb(255, 168, 167); transform-origin: 466.313px 133.19px;" id="el8xwn0ytvuxt" class="animable"/><path d="M473.24,150.86h0l0,0h0l10.42-29.63h0Z" style="fill: rgb(250, 250, 250); transform-origin: 478.45px 136.045px;" id="elkpja99m6v09" class="animable"/><polygon points="483.66 121.23 486.18 114.05 483.66 121.23 483.66 121.23" style="fill: rgb(224, 224, 224); transform-origin: 484.92px 117.64px;" id="elbs2i2njdeu6" class="animable"/><path d="M484.41,112.66l-7,4.59s.26,1.62,3.84,3.7l5-6.9h0a1.18,1.18,0,0,0-1.77-1.39Z" style="fill: rgb(69, 90, 100); transform-origin: 481.868px 116.702px;" id="el98h4afmxtqn" class="animable"/><path d="M473.21,150.87l0,0h0l10.42-29.63a3.74,3.74,0,0,1-2.44-.28l-19.31,26.89L461,149C465,151.33,469.51,152.32,473.21,150.87Z" style="fill: rgb(242, 143, 143); transform-origin: 472.315px 136.254px;" id="eldt8bwkyeyh" class="animable"/><path d="M481.22,121a2.89,2.89,0,0,0,2.44.28l2.52-7.18Z" style="fill: rgb(55, 71, 79); transform-origin: 483.7px 117.765px;" id="elal6zomufqz" class="animable"/><path d="M360.66,294.63l-1,1.18-.07.09c-.37.45-.7.87-.72.88l-19.09,24.39-1.25,1.6c-1.33,1.09-3.35,1.56-5.91,1.21a18.88,18.88,0,0,1-7.66-3.11,20.71,20.71,0,0,1-7.66-8.85c-1.13-2.82-1-5.2.22-6.79l.15-.2,21.87-27.91s-1.77,4.35,8.16,12.09c.42.34.84.65,1.23,1,8.21,6.06,11.19,4.76,11.62,4.51Z" style="fill: rgb(242, 143, 143); transform-origin: 338.592px 300.607px;" id="el96bibhlba26" class="animable"/><g id="elxr52lnp802l"><path d="M473.21,150.87,364.09,290.2l-4.45,5.7c-.37.45-.7.87-.72.88l-19.09,24.39-1.25,1.6c-1.33,1.09-3.35,1.56-5.91,1.21a18.88,18.88,0,0,1-7.66-3.11l28.69-36.75L461,149C465,151.33,469.51,152.31,473.21,150.87Z" style="opacity: 0.1; transform-origin: 399.11px 236.547px;" class="animable"/></g><g id="el9lxmuqfq43u"><path d="M387.87,215.44c.82-1.05,4.84-.16,6.41,1.18s5.53,3.81,8.81,3.29a67.92,67.92,0,0,1,11.57-1c3.36.15,5,.35,5,.35l8.36-10.69s-15,1.24-21.12,0-11.59-2.62-11.59-2.62Z" style="opacity: 0.1; transform-origin: 407.945px 212.965px;" class="animable"/></g><g id="elidiym5h9dhp"><path d="M370.49,242.27a21.53,21.53,0,0,0,3.34,2.62,17.45,17.45,0,0,0,6.19,2.58,9,9,0,0,0,6.47-1.2,4,4,0,0,0,1.63-2,2.79,2.79,0,0,0-1-2.9c-1.23-1.08-2.63-2-3.93-3a30.28,30.28,0,0,1-3.67-3c-.27-.28-.55-.84-.12-1.1s1.4.2,1.95.35a12,12,0,0,0,2.66.49,3.47,3.47,0,0,0,1.24-.12c.46-.14,1.24-.7,1.1-1.28-.07-.3-.37-.47-.64-.6a16.64,16.64,0,0,1-3.62-2c-.48-.42-1-.71-1.5-1.09a12.73,12.73,0,0,0-2.88-1.67l-9.22,11.77C369.14,240.87,369.79,241.58,370.49,242.27Z" style="opacity: 0.1; transform-origin: 378.348px 237.992px;" class="animable"/></g></g><path d="M442.35,200c3.18,6.64,5.32,12.12-2.69,14.12-6.08,1.52-21,3-30.39,3.11-1.47,0-4.55,1.42-7,1-7.12-1.26-10.94-5.62-13.61-3.81L386.61,217s-2.75-1.18-.25-6.54c2.13-4.55,5.55-7.1,9.25-7.1,3.47,0,10.2,3.53,12.56,3.58s13.64-2.71,20.65-4.15C438.14,200.92,442.35,200,442.35,200Z" style="fill: rgb(255, 168, 167); transform-origin: 415.257px 209.154px;" id="ellpmw0f1uyf" class="animable"/><path d="M387.14,240.15c-1.23-1.08-2.63-2-3.93-3a29.37,29.37,0,0,1-3.67-3c-.27-.28-.55-.83-.12-1.09s1.4.2,1.95.34a12,12,0,0,0,2.66.49,3.71,3.71,0,0,0,1.24-.11c.46-.15,1.24-.71,1.1-1.29-.07-.29-.37-.46-.64-.6a15.83,15.83,0,0,1-3.62-2c-.48-.42-1-.71-1.5-1.09a13.23,13.23,0,0,0-3.43-1.9c-1.1-.4-2.38-.51-3.33-1.24a7.28,7.28,0,0,1-2-2.83c-2.26-5.05-5.3-12-6.71-17.71L351.08,205a45.28,45.28,0,0,0,1.24,4.88c.94,2.52,2.82,6.85,4,9.28a100.6,100.6,0,0,0,6,11.24A59.51,59.51,0,0,0,370.49,241a22.08,22.08,0,0,0,3.34,2.61,17.45,17.45,0,0,0,6.19,2.58,8.87,8.87,0,0,0,6.47-1.2,4,4,0,0,0,1.63-2A2.8,2.8,0,0,0,387.14,240.15Z" style="fill: rgb(255, 168, 167); transform-origin: 369.638px 225.68px;" id="elhkwg7jhc5dk" class="animable"/><path d="M413.37,114.44l-5,4.09a3,3,0,0,1,.42-4.39A3.34,3.34,0,0,1,413.37,114.44Z" style="fill: rgb(69, 90, 100); transform-origin: 410.487px 115.951px;" id="eld0n7ktafpy" class="animable"/><path d="M400.3,151.1c0-3.13,7.31-7.84,11.08-14.45s1.9-17.44-3.28-19.11c0,0-.09-9.87-13.41-12.49s-17.5-5.57-19.86-6-2.84,8,.29,10.18a18.61,18.61,0,0,1-6-3.85c-1.94-1.87-2.71,7.89,1.47,11.31,0,0-3.46,2-3,7.17a8.57,8.57,0,0,0,6.63,8Z" style="fill: rgb(69, 90, 100); transform-origin: 390.458px 125.067px;" id="elyp9e8y1hpk" class="animable"/><path d="M377.58,114.09c-3.21,1.39-6.26,6.3-6.22,20,0,11.65,3.61,14.59,5.42,15.46s5.32.43,8.74-.1v6.69s-2.56,2.52-1.67,4.11,4.23,2.93,9.39,1.31c5.86-1.84,7.06-5.8,7.06-5.8l.25-14.59s2,2.07,5.43-1c2.86-2.5,3.89-6.8,1.75-9.16s-4.91-2.54-7.4.09l-.73-1.79c-2.13-.4-8.11.23-11.35-1.8C381.22,123.16,378.27,118.56,377.58,114.09Z" style="fill: rgb(255, 168, 167); transform-origin: 390.116px 138.192px;" id="elkanvh5gfx9j" class="animable"/><path d="M377.58,114.09a49.45,49.45,0,0,0,22.72,15.18s-6.37,2.74-14.49-2.58S377.58,114.09,377.58,114.09Z" style="fill: rgb(186, 104, 200); transform-origin: 388.94px 122.033px;" id="elyfgxjjtpus" class="animable"/><path d="M400.3,129.27l0,6.47a3,3,0,0,1-3.12-3.13A3.35,3.35,0,0,1,400.3,129.27Z" style="fill: rgb(69, 90, 100); transform-origin: 398.739px 132.506px;" id="elw8rgk94x8ah" class="animable"/><path d="M377.28,130.18a1.55,1.55,0,1,1-1.61-1.56A1.6,1.6,0,0,1,377.28,130.18Z" style="fill: rgb(38, 50, 56); transform-origin: 375.73px 130.169px;" id="el4sus3vbjtml" class="animable"/><path d="M389.6,130.87a1.69,1.69,0,0,1-1.6,1.78,1.73,1.73,0,1,1,1.6-1.78Z" style="fill: rgb(38, 50, 56); transform-origin: 387.872px 130.925px;" id="eldum6648fe8e" class="animable"/><path d="M387.45,139.82l-5,1.55a2.54,2.54,0,0,0,3.19,1.91A2.87,2.87,0,0,0,387.45,139.82Z" style="fill: rgb(242, 143, 143); transform-origin: 385.001px 141.6px;" id="elfcpryf8rhv" class="animable"/><path d="M373.19,127.3l4-1.58a2.05,2.05,0,0,0-2.76-1.22A2.21,2.21,0,0,0,373.19,127.3Z" style="fill: rgb(38, 50, 56); transform-origin: 375.124px 125.815px;" id="elxza9wrn5phn" class="animable"/><polygon points="381.05 128.92 381.25 138.46 376.12 137.32 381.05 128.92" style="fill: rgb(242, 143, 143); transform-origin: 378.685px 133.69px;" id="elhw3nh956bek" class="animable"/><path d="M385.52,149.49c3.61-.42,11.05-2.49,12.26-5.52a7.92,7.92,0,0,1-2.67,3.84c-2.25,1.93-9.59,3.93-9.59,3.93Z" style="fill: rgb(242, 143, 143); transform-origin: 391.65px 147.855px;" id="el1j9zi57amyy" class="animable"/></g></g><g id="freepik--character-2--inject-2" class="animable" style="transform-origin: 261.03px 241.618px;"><g id="freepik--character--inject-2" class="animable" style="transform-origin: 261.03px 241.618px;"><path d="M282.33,111.33V111a11.6,11.6,0,0,0,1.77-12.91,11,11,0,0,0-11-6.38h0a20,20,0,0,0-11.65-3.54,23.18,23.18,0,0,0-23.19,23.18c0,2-.09,4.08,0,6.11.06,3.21-1.05,5-2.77,6.26-2.06,1.46-4.34,2.59-6.38,4.07a10.38,10.38,0,0,0-2.86,13c.67,1.2,1.43,2.36.78,3.76a5.17,5.17,0,0,1-1.7,1.9c-.7.51-1.44.94-2.11,1.49a8.25,8.25,0,0,0-2.66,7.87c.69,3.37,3.16,5.44,6.09,6.88a37.46,37.46,0,0,0,19.24,3.51c6.57-.49,11.85-2.58,17.71-5.61a37.59,37.59,0,0,0,14.06-12.71,23.4,23.4,0,0,0,4.1-8.87,55,55,0,0,0,.73-9.84c0-3.15-.11-10.83-.11-16.24Z" style="fill: rgb(38, 50, 56); transform-origin: 252.85px 127.249px;" id="elu5e9vs4citk" class="animable"/><path d="M272.27,139.63c3.8.4,9.15.28,12.34,5.77s18.12,45.24,18.12,45.24H288.59l-16.41-33Z" style="fill: rgb(177, 102, 104); transform-origin: 287.455px 165.135px;" id="el9m8zuc6sbqh" class="animable"/><path d="M231.77,362.62a52.55,52.55,0,0,0-.81,8.56c-.1,5.19-1.06,7-1.18,11.29-.15,4.87.69,6.69,2.67,9.43s7.16,5.21,9.35.59,1.91-7.66,1.21-12.43c-.72-4.94-.82-7.66-1.24-11.43-.37-3.32-.81-5.84-.81-5.84Z" style="fill: rgb(38, 50, 56); transform-origin: 236.641px 378.844px;" id="elrl4bxtlpzt" class="animable"/><path d="M246.51,321.8l-17.1-.31c.25,11.42,2.07,30.42,2.36,41.13.06,2-.05,15.67.71,19.82,1.14,6.23,8.54,5.39,8.93,1.66s-.47-19.67-.45-21.31c-.06-6.87,3.16-24.8,4.84-37.13C245.89,325.06,246.43,322.39,246.51,321.8Z" style="fill: rgb(177, 102, 104); transform-origin: 237.96px 354.251px;" id="el1mr0zj0lkia" class="animable"/><path d="M271.64,353.74s-.88.05-1,.77-.21,2.21-.56,3.62a20.25,20.25,0,0,0-.61,6.77c.29,1.59,3.93,4,6.42,4.39s6,2.87,7.95,4.71a19.06,19.06,0,0,0,11.06,4.34c4.15,0,7.05-1.38,8.42-3.6s-1.25-2.5-6-5.58l-3.69-2.39c-7.52-4.91-10.27-7.55-12.4-12.46Z" style="fill: rgb(38, 50, 56); transform-origin: 286.545px 366.04px;" id="elfksv2dhkfi4" class="animable"/><path d="M281.27,351.07c-.12-3.54,1.69-29.58,1.69-29.58l-14.71,1.66C271.72,343.91,272,351,271.61,354h0a2.71,2.71,0,0,0-.09.87c0,4,4.56,6.21,8.11,8.89,1.41,1.07,5,4.34,9.23,5.78,2.74.93,7.79,1.28,8.44-.38-4.32-3.3-10.2-7.61-13.64-11.38C282,356,281.4,354.6,281.27,351.07Z" style="fill: rgb(177, 102, 104); transform-origin: 282.775px 345.906px;" id="elrklsn8npne" class="animable"/><path d="M232.37,204.51c-5.23,22.93,1.29,77.79,1.29,77.79-.24,2.85-3.49,8.45-4.7,21-1.43,14.79,2.64,54.39,2.64,54.39s3.91,2.92,9.58.2c0,0,10.35-58.18,12.2-72.88,1.62-12.84,6.15-43.85,6.15-43.85l7.41,43.78a76.13,76.13,0,0,0-2.8,12.67c-.83,8.65,7.59,52.06,7.59,52.06s3.94,2.08,9.54-.19c0,0,5.41-55.75,6.19-66.17,1-13.95-1.64-57.54-3-77.86Z" style="fill: rgb(55, 71, 79); transform-origin: 258.168px 281.78px;" id="elk2tie71o1o" class="animable"/><g id="eluycge039vdb"><path d="M259.53,241.12l1.9-13.06s11-1.48,16-6.17a18.08,18.08,0,0,1-13,8.21l-1.95,11.82,3.69,38.59Z" style="fill: rgb(38, 50, 56); opacity: 0.6; transform-origin: 268.48px 251.2px;" class="animable"/></g><path d="M280.53,173.8c.67,6.21,4.27,33.56,4.27,33.56-20.5,10.94-49.27,3.61-53.16-.9,3.53-11.6,9.07-17.88,11.21-21.5l-3.74-15.66s10.36-12.67,3.34-28.23l8.74-.94,15.34-.5h5.74c2.45,2.29,8.36,7.77,10.85,14.16C284.73,157.92,286.29,161.58,280.53,173.8Z" style="fill: rgb(240, 240, 240); transform-origin: 258.22px 176.353px;" id="eli1asgpuwwqd" class="animable"/><path d="M241.19,177.48c.18.71,5.33,7.54,7.68,9s-4.17,3.57-5.09,7.28c-1.86,7.5,9.74,17.36,24.16,18.73-16.3,2.68-33.33-2.63-36.3-6.07,3.53-11.6,9.08-17.91,11.21-21.5Z" style="fill: rgb(224, 224, 224); transform-origin: 249.79px 195.35px;" id="el2m2ck4zbkxr" class="animable"/><path d="M242.45,141.07c-10.4.38-11.74,5.34-13.85,11.28-2.87,8.3-8.25,28.84-10.19,38.29h15.7l5-21.34h0C248.54,160.6,245.82,145.46,242.45,141.07Z" style="fill: rgb(177, 102, 104); transform-origin: 231.996px 165.855px;" id="el9pmbm9831ca" class="animable"/><path d="M279.81,123.77a4.86,4.86,0,1,1-4.85,4.86,4.86,4.86,0,0,1,4.85-4.86m0-1a5.86,5.86,0,1,0,5.85,5.86,5.85,5.85,0,0,0-5.85-5.86Z" style="fill: rgb(186, 104, 200); transform-origin: 279.8px 128.63px;" id="eluacnp5i4hs" class="animable"/><path d="M276.2,99.4c2.61,1.46,6.21,4.5,5.11,18-.86,10.56-4.88,14.45-6.73,15.31s-4.21,1-7.73.48l.1,6.32s6.81,7.23,5.95,9.23c-1,2.42-8.95,2.11-12.36.62a18.51,18.51,0,0,1-9.16-9.25l0-15.62s-2,2-5.59-.93c-2.94-2.46-4-6.7-1.81-9a4.81,4.81,0,0,1,4.53-1.32,5.94,5.94,0,0,1,3.94,3.42,1.14,1.14,0,0,0,.75.73.84.84,0,0,0,.72-.3,2,2,0,0,0,.39-.71c.84-2.21.58-4.58,1.19-6.84a13.22,13.22,0,0,1,2.49-4.79A16.52,16.52,0,0,1,268.74,99,22,22,0,0,1,276.2,99.4Z" style="fill: rgb(177, 102, 104); transform-origin: 262.164px 124.684px;" id="elhjmhg796btv" class="animable"/><path d="M278.05,99.31c.88,4.18-2,11.23-9.49,11,0,0,3.05-2.32,3.43-4.91a14.61,14.61,0,0,1-11.66,6c-6.38.27-8-1.17-8-1.17S258.54,89.83,278.05,99.31Z" style="fill: rgb(38, 50, 56); transform-origin: 265.267px 104.116px;" id="elgel2ulgsyt" class="animable"/><path d="M265.19,113.77a1.56,1.56,0,0,1-1.43,1.63,1.48,1.48,0,0,1-1.61-1.38,1.56,1.56,0,0,1,1.44-1.63A1.46,1.46,0,0,1,265.19,113.77Z" style="fill: rgb(38, 50, 56); transform-origin: 263.67px 113.895px;" id="eli2hiqok9x7e" class="animable"/><path d="M265.66,123.69l5.27,1.55a2.7,2.7,0,0,1-3.36,2A2.88,2.88,0,0,1,265.66,123.69Z" style="fill: rgb(154, 74, 77); transform-origin: 268.238px 125.515px;" id="el48zk7kdrto7" class="animable"/><path d="M279,110.72l-3-1.66a1.66,1.66,0,0,1,2.29-.73A1.84,1.84,0,0,1,279,110.72Z" style="fill: rgb(38, 50, 56); transform-origin: 277.594px 109.423px;" id="el2lcgr8bmuv" class="animable"/><path d="M277.54,113.51a1.57,1.57,0,0,1-1.44,1.63,1.47,1.47,0,0,1-1.61-1.38,1.57,1.57,0,0,1,1.44-1.63A1.48,1.48,0,0,1,277.54,113.51Z" style="fill: rgb(38, 50, 56); transform-origin: 276.015px 113.635px;" id="el1kdsf7jo8p9" class="animable"/><polygon points="269.79 112.9 270.21 121.6 274.75 120.08 269.79 112.9" style="fill: rgb(154, 74, 77); transform-origin: 272.27px 117.25px;" id="elp7t1p72bfnb" class="animable"/><path d="M266.85,133.21c-3.71-.7-11.41-3-12.66-6a8.67,8.67,0,0,0,2.88,4.3c2.31,1.9,9.82,3.9,9.82,3.9Z" style="fill: rgb(154, 74, 77); transform-origin: 260.54px 131.31px;" id="elrw4dg93fngm" class="animable"/><path d="M251.38,132.81v1.13a5.85,5.85,0,1,1-2.45-11.16.51.51,0,0,1,.5.5.5.5,0,0,1-.5.5,4.85,4.85,0,0,0,0,9.7A4.77,4.77,0,0,0,251.38,132.81Z" style="fill: rgb(186, 104, 200); transform-origin: 247.228px 128.63px;" id="elz2isknxt4t" class="animable"/><rect x="191.97" y="182.16" width="138.12" height="86.1" rx="5" style="fill: rgb(186, 104, 200); transform-origin: 261.03px 225.21px;" id="elchyot061vwu" class="animable"/><g id="el28fopm0k0yt"><rect x="198.07" y="187.61" width="125.92" height="75.2" rx="4.46" style="fill: rgb(255, 255, 255); opacity: 0.7; transform-origin: 261.03px 225.21px;" class="animable"/></g><polygon points="204.41 257.1 242.41 222.54 269.13 246.07 261.03 234.52 284.14 200.08 317.66 257.1 204.41 257.1" style="fill: rgb(250, 250, 250); transform-origin: 261.035px 228.59px;" id="elhw97cwb5o6a" class="animable"/><g id="el7pa7kgk1c9u"><circle cx="228.65" cy="205.9" r="9.53" style="fill: rgb(250, 250, 250); transform-origin: 228.65px 205.9px; transform: rotate(-76.72deg);" class="animable"/></g><path d="M315.48,177.17c-6.61,1.08-8.51,5-8.51,5h5.41s.68,1.82-1.14,8.64c-.64,2.39,2.9,2.46,3,1.56.64,1.47,5.29,3.52,8.77,1.21,3.18-2.11,4.61-5.34,3.9-11.41C325.69,175.38,316.64,177,315.48,177.17Z" style="fill: rgb(177, 102, 104); transform-origin: 317.029px 185.751px;" id="elmv54zt9wgv" class="animable"/><path d="M207.46,177.17c6.62,1.08,8.52,5,8.52,5h-5.41s-.68,1.82,1.14,8.64c.64,2.39-2.9,2.46-3,1.56-.64,1.47-5.28,3.52-8.76,1.21-3.19-2.11-4.61-5.34-3.9-11.41C197.26,175.38,206.3,177,207.46,177.17Z" style="fill: rgb(177, 102, 104); transform-origin: 205.925px 185.751px;" id="el8z9o2c1n2id" class="animable"/></g></g><g id="freepik--character-1--inject-2" class="animable" style="transform-origin: 113.127px 261.32px;"><g id="freepik--character--inject-2" class="animable" style="transform-origin: 113.127px 261.32px;"><g id="freepik--Botom--inject-2" class="animable" style="transform-origin: 108.49px 317.786px;"><path d="M69.71,389.45c3.5,1.88,7.76,1.73,11.92,0l1.72-22.66-13.64,1.8Z" style="fill: rgb(255, 168, 167); transform-origin: 76.53px 378.797px;" id="elqnrny2nhfwi" class="animable"/><path d="M111.53,375.9c3,6.39,8.28,4.62,14.29.53l-1.06-22.77H110.28Z" style="fill: rgb(255, 168, 167); transform-origin: 118.05px 366.884px;" id="elr2yzlgv9y4" class="animable"/><path d="M95.24,410.9c.38.36.26,2.83-.16,3.5s-3.07,2.94-7.79,3.28c-4.52.32-8.55-.29-11.2-2s-3.93-3.54-4.18-6.11,0-5.05-1.19-7c-1.13-1.83-2.94-3.89-3.33-4.88-.85-2.16,0-5.24,0-5.24Z" style="fill: rgb(38, 50, 56); transform-origin: 81.2406px 405.106px;" id="el0dm67agax8qt" class="animable"/><path d="M82.85,388.45a12.56,12.56,0,0,0,.55,2.86A25.82,25.82,0,0,0,86.17,397a22.29,22.29,0,0,0,1.88,2.65c1.36,1.63,3.06,3,4.51,4.52a9.24,9.24,0,0,1,2.78,5.54c.19,3.54-3.65,4.75-6.61,5.27a21.52,21.52,0,0,1-9.61-.48,8.84,8.84,0,0,1-6.48-7.06c-.16-1-.1-2-.22-3a13.86,13.86,0,0,0-2.75-6.2,18.27,18.27,0,0,1-2.11-3.37c-.93-2.19-.19-4.66.4-6.84.51-1.89,1.09-4,1.75-3.84a2.53,2.53,0,0,0,.16,1.13,4.59,4.59,0,0,1,.52,1.12,9.47,9.47,0,0,0,.54,1.46,3.82,3.82,0,0,0,1.57,1.73c0-1.34.09-2.67.13-4a1.92,1.92,0,0,1,.31-1.18,1.88,1.88,0,0,1,1.13-.49,25.19,25.19,0,0,1,7.58-.63,1.08,1.08,0,0,1,1.18,1.35A34,34,0,0,0,82.85,388.45Z" style="fill: rgb(55, 71, 79); transform-origin: 81.2329px 399.291px;" id="el7bm2x8uh7y3" class="animable"/><path d="M86.64,397.71c-1.32-1-4.27-1-5.89-.83a9.9,9.9,0,0,0-4.59,1.61,1,1,0,0,1-1.35-.1h0a1,1,0,0,1,.1-1.51A10,10,0,0,1,80.08,395c4-.28,5.14.4,5.14.4S87,396.54,86.64,397.71Z" style="fill: rgb(245, 245, 245); transform-origin: 80.6002px 396.819px;" id="el0ro230v2g4bh" class="animable"/><path d="M89.67,401.34c-1.65-1-4.9-.84-6.52-.67a9.27,9.27,0,0,0-4.46,1.7,1.06,1.06,0,0,1-1.36-.11h0a1,1,0,0,1,.1-1.5,10.37,10.37,0,0,1,5.28-2.07c4-.28,5,.53,5,.53A3.28,3.28,0,0,1,89.67,401.34Z" style="fill: rgb(245, 245, 245); transform-origin: 83.354px 400.599px;" id="elywvdync689" class="animable"/><path d="M78.49,391.16a10,10,0,0,1,5,.42c.7.4,1.16,1.5.71,1.78a9.24,9.24,0,0,0-4.43-.61,13,13,0,0,0-4.3,1.19c-.34.15-.74.36-1.09.55a.94.94,0,0,1-1.31-.4h0a.89.89,0,0,1,.35-1.14A12.78,12.78,0,0,1,78.49,391.16Z" style="fill: rgb(245, 245, 245); transform-origin: 78.6827px 392.815px;" id="elp8hfm9gka0e" class="animable"/><path d="M149.54,390.47a4.31,4.31,0,0,1-.17,3.16c-.44.92-5.26,3.63-11.76,3.2a27,27,0,0,1-13.43-4.7c-2.48-1.64-5.06-1.95-8.28-2.13s-7.44-1.79-8.14-3.29.1-4.1.1-4.1Z" style="fill: rgb(38, 50, 56); transform-origin: 128.617px 389.743px;" id="elq7neqyml8tg" class="animable"/><path d="M123.43,370.49l1.69-.61a1.35,1.35,0,0,1,1-.11c.42.15.58.64.69,1.07a16.17,16.17,0,0,0,.71,2.82,6.79,6.79,0,0,0,1.82,1.92,29.94,29.94,0,0,0,5.2,3.35c2.12,1.14,4.2,2,6.39,3s5.21,1.62,7,2.8c2.55,1.72,2.88,6,0,7.74-2.51,1.47-9.1,3.07-16,1.11-3.77-1.07-8-5.09-12.9-5.48-3.14-.25-9.09-1.13-11.11-3.52-.75-1.06.25-4.41,1.07-7.31.9-3.16,1.24-8.11,2.28-7.83.08,1.05,1,1.66,1.54,2.54a18.87,18.87,0,0,1,1.13,2.51,4.63,4.63,0,0,0,1.64,2.17,2.11,2.11,0,0,0,2.55-.15c.92-.95.37-2.63,1-3.78a4,4,0,0,1,2.22-1.45Z" style="fill: rgb(55, 71, 79); transform-origin: 128.812px 381.959px;" id="el0g3rjqwbx8ol" class="animable"/><path d="M131.56,377.22a2.89,2.89,0,0,0-2.32-1.55c-1.43-.27-4,.78-5.53,2.08a1.18,1.18,0,0,0,.17,1.94h0a1.18,1.18,0,0,0,1.34-.15A8.94,8.94,0,0,1,131.56,377.22Z" style="fill: rgb(245, 245, 245); transform-origin: 127.419px 377.73px;" id="el433g54l7y2h" class="animable"/><path d="M136,379.7a3.37,3.37,0,0,0-2.75-1.41s-3.74.1-6,2.26a1.14,1.14,0,0,0,.16,1.87h0a1.12,1.12,0,0,0,1.29-.15A9,9,0,0,1,136,379.7Z" style="fill: rgb(245, 245, 245); transform-origin: 131.417px 380.424px;" id="elkisyn6gzykb" class="animable"/><path d="M140.89,381.94a3.75,3.75,0,0,0-2.85-1.28,10.07,10.07,0,0,0-5.8,2.29,1.14,1.14,0,0,0,.16,1.87h0a1.12,1.12,0,0,0,1.29-.15A8.6,8.6,0,0,1,140.89,381.94Z" style="fill: rgb(245, 245, 245); transform-origin: 136.357px 382.809px;" id="elx4785ke2lzc" class="animable"/><path d="M71.45,223.92c-.82,24.8-.76,79.74-.76,79.74-.26,3.08-1.51,9.42-2.54,21.77-1.34,16.06,1.56,51.39,1.56,51.39a16.43,16.43,0,0,0,13,.07s7.75-50.36,10.21-66.24c2.16-14,6.4-40.26,6.4-40.26l4.88,35.71a84,84,0,0,0,.5,20.38c1.14,7.31,6.2,37.36,6.2,37.36a25.61,25.61,0,0,0,14.36-.54s.48-52.07.61-58.84c.15-7.72-3.42-86.65-3.42-86.65Z" style="fill: rgb(69, 90, 100); transform-origin: 96.8355px 298.003px;" id="elshrkq8k0pz9" class="animable"/><path d="M99.27,270.39l3.67-20.32s10.16-.89,15.78-6.56c0,0-1,5.56-13.78,8.89L101.27,273l2.88,33.14Z" style="fill: rgb(38, 50, 56); transform-origin: 108.995px 274.825px;" id="elx6p6a7s23kj" class="animable"/></g><path d="M158.4,165c-1.29,2.81-14.13,21.64-14.13,21.64-4-4.47-15.24-20.08-21.78-23.28-6.38-3.11-16.95-2.25-16.95-2.25l15.61,24.64s10.94,11,17.95,16.4c4.84,3.69,9.64,6.66,17.17-6.77,4.51-8,9.57-18.55,10.88-21.18a7.9,7.9,0,0,1,5.48-4.24c.7-.14,1.4-.3,2.09-.48,1.53-.42,3.31-1.1,3.82-2.77.18-.57.21-1.18.34-1.76.2-.89.6-1.72.8-2.6a3.51,3.51,0,0,0-.06-1.82c-.17-.51-.65-.94-.68-1.5a2.1,2.1,0,0,1,.23-.79,3.43,3.43,0,0,0-.61-3.43,4.41,4.41,0,0,1-.63-.74c-.32-.59-.16-1.33-.31-2-.67-3-5.87-.8-7.49.07-.47.25-2.77,1.41-3.79,2a16.74,16.74,0,0,0-1.37-4.79c-1.27-3-4.61-3.63-4.45-1.72a36.91,36.91,0,0,1-.06,6.49,35.44,35.44,0,0,0-.25,4.1C160.22,160.53,159.87,161.79,158.4,165Z" style="fill: rgb(255, 189, 167); transform-origin: 142.656px 175.905px;" id="ellxbx4sy13ed" class="animable"/><path d="M109.77,160.61c9.56.46,11.67.6,17.78,6.14s16.55,19,16.55,19l8.18-11a10.76,10.76,0,0,0,4.49,4.94,15.64,15.64,0,0,0,6.84,1.7s-4.4,10-8.62,17.06-7.55,9.65-13.77,5.87-27-24-27-24Z" style="fill: rgb(186, 104, 200); transform-origin: 136.69px 183.333px;" id="elh8tl2xazcvg" class="animable"/><g id="el205i9687hnv"><path d="M109.77,160.61c9.56.46,11.67.6,17.78,6.14s16.55,19,16.55,19l8.18-11a10.76,10.76,0,0,0,4.49,4.94,15.64,15.64,0,0,0,6.84,1.7s-4.4,10-8.62,17.06-7.55,9.65-13.77,5.87-27-24-27-24Z" style="fill: rgb(255, 255, 255); opacity: 0.75; transform-origin: 136.69px 183.333px;" class="animable"/></g><path d="M167.86,154.81c-1.71.71-2.09,1.92-1.82,4.45.17,1.49,0,4.3-1.56,5.56a3.9,3.9,0,0,0,2-1.11c.7-.86.91-1,1.38-.56a2.72,2.72,0,0,0,1.18.55,2,2,0,0,0,0,2.34c.9,1.22,4.42.94,7.17-.8,0,0-4.55,1.87-5.77.48s1.1-3.47,2.9-4.14c0,0-4.42,1.48-5.25.06s1-2.71,3.55-3.62c0,0-3.68,1-4.43-.2C166.36,156.35,167.41,155.36,167.86,154.81Z" style="fill: rgb(240, 153, 122); transform-origin: 170.345px 160.798px;" id="el7ofc40qzuba" class="animable"/><path d="M121.15,179.65c-1.1-7.94-2.14-18.61-14.45-19.1l-15.88.75c-3.91,1-19.11,2.82-19.11,2.82l-.29,34.45s-1,24.83-.67,38.13c11.37,7.21,36.11,9.54,51.65-2.25C122.86,223.48,122.23,187.51,121.15,179.65Z" style="fill: rgb(250, 250, 250); transform-origin: 96.6177px 201.625px;" id="elyhk0dm9fiqs" class="animable"/><path d="M122.22,115.34a3.35,3.35,0,0,0-1.88-3.21,5.87,5.87,0,0,0-3.88-.38,4.67,4.67,0,0,0-2.88-4.65,5.4,5.4,0,0,0-5.9.9c.36-1.4-.93-2.8-2.34-3.08a7.56,7.56,0,0,0-4.2.77c-2,.8-4,1.69-6,2.41-3.57,1.26-7.38,2-10.6,4a6.5,6.5,0,0,0-2,1.76,5.66,5.66,0,0,0-.85,3.58,7,7,0,0,0,.19,1.22A3.3,3.3,0,0,0,81,118a3,3,0,0,0-4.13,1.52l3.83,1.9a5.5,5.5,0,0,0-2.84,1.65c-1.92,2.09-.6,8.42,2.07,14.56,0,0,2.79,11.26,3.82,13.1a5.09,5.09,0,0,0,3,2.29l-.37-6.87L115,143.62l-2.86-2a15.74,15.74,0,0,0,9-14.73,15.52,15.52,0,0,0-2-7.24C120.62,118.46,122,116.93,122.22,115.34Z" style="fill: rgb(186, 104, 200); transform-origin: 99.5479px 128.949px;" id="eljyeeytva3x" class="animable"/><g id="elcu055h5lo"><path d="M122.22,115.34a3.35,3.35,0,0,0-1.88-3.21,5.87,5.87,0,0,0-3.88-.38,4.67,4.67,0,0,0-2.88-4.65,5.4,5.4,0,0,0-5.9.9c.36-1.4-.93-2.8-2.34-3.08a7.56,7.56,0,0,0-4.2.77c-2,.8-4,1.69-6,2.41-3.57,1.26-7.38,2-10.6,4a6.5,6.5,0,0,0-2,1.76,5.66,5.66,0,0,0-.85,3.58,7,7,0,0,0,.19,1.22A3.3,3.3,0,0,0,81,118a3,3,0,0,0-4.13,1.52l3.83,1.9a5.5,5.5,0,0,0-2.84,1.65c-1.92,2.09-.6,8.42,2.07,14.56,0,0,2.79,11.26,3.82,13.1a5.09,5.09,0,0,0,3,2.29l-.37-6.87L115,143.62l-2.86-2a15.74,15.74,0,0,0,9-14.73,15.52,15.52,0,0,0-2-7.24C120.62,118.46,122,116.93,122.22,115.34Z" style="opacity: 0.3; transform-origin: 99.5479px 128.949px;" class="animable"/></g><path d="M99,123.7c-2.63-.31-5.24-.74-7.85-1.15a.84.84,0,0,0-.68.09.81.81,0,0,0-.23.39c-1.71,5-1.67,10.43-3,15.54-.12.46-.41,1.25-1,1.32-1,.12-1.7-.78-2.13-1.57l-1-1.75a4.59,4.59,0,0,0-.72-.9c-1.22-1.13-4.84-2.51-6.52,1.34s1.91,9.07,4.83,9.89c5,1.4,5.67-1.82,5.67-1.82l1,17.95c4.44,4.65,19.08,3,16.18-1l-.19-5.47a31.42,31.42,0,0,0,6.72.13c3.65-.69,5.86-3.65,6.84-7.65,1.58-6.42,2.09-11.59.17-24.06a15.56,15.56,0,0,0-.9-3.36C111.06,124.44,104.82,124.39,99,123.7Z" style="fill: rgb(255, 189, 167); transform-origin: 96.885px 143.734px;" id="elk4596agw2f" class="animable"/><path d="M103.35,156.56s-8.23-1.38-11.14-2.81A9.38,9.38,0,0,1,88.14,150a12.83,12.83,0,0,0,2.39,4.54c2.18,2.61,12.89,4.23,12.89,4.23Z" style="fill: rgb(240, 153, 122); transform-origin: 95.78px 154.385px;" id="ele9384w8p9r9" class="animable"/><path d="M100.87,136.27a1.53,1.53,0,1,1-1.58-1.54A1.57,1.57,0,0,1,100.87,136.27Z" style="fill: rgb(38, 50, 56); transform-origin: 99.34px 136.26px;" id="el58meocsp7ha" class="animable"/><path d="M99.73,129l-3.68,1.59a2.1,2.1,0,0,1,1.08-2.7A2,2,0,0,1,99.73,129Z" style="fill: rgb(38, 50, 56); transform-origin: 97.8134px 129.168px;" id="elimy0w5hszg" class="animable"/><path d="M100.87,146.66l4.67,1.58a2.43,2.43,0,0,1-3.09,1.63A2.57,2.57,0,0,1,100.87,146.66Z" style="fill: rgb(240, 153, 122); transform-origin: 103.143px 148.325px;" id="el6xymw134ynt" class="animable"/><path d="M116.79,130.47l-3.67-1.4a1.9,1.9,0,0,1,2.49-1.11A2,2,0,0,1,116.79,130.47Z" style="fill: rgb(38, 50, 56); transform-origin: 115.008px 129.147px;" id="el60auwcp6ezd" class="animable"/><path d="M92.22,131.79l-12.83,2.68a4.7,4.7,0,0,1,3.71,1.88l9.07-1.73Z" style="fill: rgb(38, 50, 56); transform-origin: 85.805px 134.07px;" id="el6mwyo5re4ow" class="animable"/><path d="M115.27,136.31a1.56,1.56,0,0,1-1.48,1.64,1.58,1.58,0,0,1-1.59-1.55,1.54,1.54,0,1,1,3.07-.09Z" style="fill: rgb(38, 50, 56); transform-origin: 113.732px 136.325px;" id="elszzpzq0b0no" class="animable"/><path d="M121.82,131.23l-.83-.09c-2.71-.25-6.26-.27-8.41.43-2.69.88-3.65,1.83-5.14,1.86s-2.57-.89-5.41-1.66c-2.27-.62-6.06-.46-9-.11l-.91.12a1.51,1.51,0,0,0-1,1.53,3.26,3.26,0,0,0,.83,1.75,2.36,2.36,0,0,1,.28.71c.28,1.22.43,3.56,1,4.85a6,6,0,0,0,1.11,1.73,4.63,4.63,0,0,0,.58.5l.33.23a5.43,5.43,0,0,0,1,.47l.17,0,.27.08.28.06a5.81,5.81,0,0,0,.88.13l.38,0h.48a6.36,6.36,0,0,0,6.21-3.73c1-1.86.76-4.47,2.46-4.5h.16l.15,0c1.25.28,1.05,2.67,1.81,4.38a6.62,6.62,0,0,0,1.17,1.86,3.83,3.83,0,0,0,.28.29l.15.13.16.13.15.11.15.11.13.08.08.05a5.05,5.05,0,0,0,1.46.57l.14,0a7.08,7.08,0,0,0,1.79.15,5.38,5.38,0,0,0,5.26-3.47,32.17,32.17,0,0,0,1.15-4.89,1.52,1.52,0,0,1,.32-.65,3.4,3.4,0,0,0,.81-1.81C122.78,132,122.29,131.28,121.82,131.23ZM104,138.45a5.69,5.69,0,0,1-1.32,2.59h0a5.27,5.27,0,0,1-4,1.54,4.3,4.3,0,0,1-3.83-1.8l-.12-.18-.11-.18-.09-.18-.07-.15-.06-.12,0-.11-.07-.18h0a4.25,4.25,0,0,1-.19-.53v0L94,138.8c0-.19-.09-.36-.12-.52a.44.44,0,0,0,0-.1l0-.09c-.26-1.29-.55-3.82.09-4.4s2.34-1.21,5.07-1l.3,0a10.83,10.83,0,0,1,1.25.2l.48.11a11.51,11.51,0,0,1,1.21.38l.37.15.41.19a.2.2,0,0,0,.08,0l.14.09a2.37,2.37,0,0,1,.81.66C104.55,135.33,104.35,137,104,138.45Zm16-.85c-.23,1-.73,3.2-2.67,4.18a4.72,4.72,0,0,1-2,.5,4.3,4.3,0,0,1-4.07-1.86v0l-.07-.12-.08-.13s0-.05,0-.08a1.24,1.24,0,0,1-.1-.2l-.11-.23s0-.08,0-.12l0-.06,0-.1,0-.08a7.51,7.51,0,0,1-.25-.95c-.25-1.43-.37-3.1.16-3.9s2.57-1.71,4.53-2a9.88,9.88,0,0,1,1.26-.12h.9l.21,0c.12,0,.23,0,.34,0l.63.1.15,0h0l.1,0,.15.05.18,0,.3.12,0,0a2.15,2.15,0,0,1,.67.43C120.7,133.77,120.32,136.31,120,137.6Z" style="fill: rgb(55, 71, 79); transform-origin: 106.912px 137.407px;" id="el6o4bkzv3szd" class="animable"/><path d="M106.93,135.76l.26,9.7,5.42-1.56-5-8.22A1.42,1.42,0,0,0,106.93,135.76Z" style="fill: rgb(240, 153, 122); transform-origin: 109.77px 140.564px;" id="elj2z7282iau" class="animable"/><path d="M123.08,189.53c-.42-10.06-1.21-18.94-5-23.66s-5.76-5.62-14.64-5.48l0,.6a3.31,3.31,0,0,1,2.51,1.47,52.18,52.18,0,0,1,6.83,15.17c2.58,9.78,3,31.6,3.15,43.36s0,21.23,0,21.23,6-1.39,7.79-4.36C123.79,237.86,123.51,199.59,123.08,189.53Z" style="fill: rgb(186, 104, 200); transform-origin: 113.585px 201.298px;" id="ela84i2o4ms6i" class="animable"/><g id="elhqz5cjeu7v7"><path d="M123.08,189.53c-.42-10.06-1.21-18.94-5-23.66s-5.76-5.62-14.64-5.48l0,.6a3.31,3.31,0,0,1,2.51,1.47,52.18,52.18,0,0,1,6.83,15.17c2.58,9.78,3,31.6,3.15,43.36s0,21.23,0,21.23,6-1.39,7.79-4.36C123.79,237.86,123.51,199.59,123.08,189.53Z" style="opacity: 0.1; transform-origin: 113.585px 201.298px;" class="animable"/></g><g id="elvhwemwwfrq"><path d="M123.08,189.53c-.42-10.06-1.21-18.94-5-23.66s-5.76-5.62-14.64-5.48l0,.6a3.31,3.31,0,0,1,2.51,1.47,52.18,52.18,0,0,1,6.83,15.17c2.58,9.78,3,31.6,3.15,43.36s0,21.23,0,21.23,6-1.39,7.79-4.36C123.79,237.86,123.51,199.59,123.08,189.53Z" style="fill: rgb(255, 255, 255); opacity: 0.6; transform-origin: 113.585px 201.298px;" class="animable"/></g><path d="M92.38,173.52c-1.26-5.36-3.88-8.9-5-11.63L71.74,164c-4.09,1.89-4.92,5.88-4.52,10.37l2.91,33-.81,31.2c6.34,9.86,25.26,8,25.26,8s.54-14-.07-41.16C94.17,190.18,94,180.35,92.38,173.52Z" style="fill: rgb(186, 104, 200); transform-origin: 80.9652px 204.3px;" id="elfyi9c463owi" class="animable"/><g id="elvhkrgx1azej"><path d="M92.38,173.52c-1.26-5.36-3.88-8.9-5-11.63L71.74,164c-4.09,1.89-4.92,5.88-4.52,10.37l2.91,33-.81,31.2c6.34,9.86,25.26,8,25.26,8s.54-14-.07-41.16C94.17,190.18,94,180.35,92.38,173.52Z" style="fill: rgb(255, 255, 255); opacity: 0.6; transform-origin: 80.9652px 204.3px;" class="animable"/></g><path d="M92.9,176.16c-.73-3.45-1.12-9.84-1.72-11.13s-3.91-3.85-4-5.58l-.06-1.12a5.52,5.52,0,0,0-2.77,1.43c-1,.92-4.11,3.06-4.11,3.06a14,14,0,0,0,2.31,5.92c1.81,2.62,4.35,4.33,4.75,3.68s.32-1.63,1-3.16c.84-1.91,1-2.71,1.92-.83C90.88,169.94,92.9,176.16,92.9,176.16Z" style="fill: rgb(69, 90, 100); transform-origin: 86.57px 167.245px;" id="eln90xba81o1" class="animable"/><path d="M111.67,174.29c.9,2.9-1.31-10-2.84-12.33s-5.47-3.17-5.47-3.17l.17,2.79a4.22,4.22,0,0,1,2.51,1.75A49.73,49.73,0,0,1,111.67,174.29Z" style="fill: rgb(69, 90, 100); transform-origin: 107.619px 166.751px;" id="el5opnhykfmtd" class="animable"/><path d="M78.3,186.26l13.23-1.12s.4,8.4.4,10.6c0,1.38-2.2,3.66-3.84,5.17a3.45,3.45,0,0,1-3.89.54c-2-1-4.6-2.6-4.85-4.21C79,194.64,78.3,186.26,78.3,186.26Z" style="fill: rgb(69, 90, 100); transform-origin: 85.115px 193.48px;" id="eln8o47roxlyc" class="animable"/><path d="M117.37,183.59h5.71s.7,6.82.7,10.5c0,2.65-.24,4.32-.72,4.32-1,0-4.39-2.3-4.73-4.93C118.06,191.31,117.37,183.59,117.37,183.59Z" style="fill: rgb(69, 90, 100); transform-origin: 120.575px 191px;" id="elgeh843w1737" class="animable"/><path d="M93.3,178.91a233.35,233.35,0,0,0-25.33,4l.08.93a234.78,234.78,0,0,1,25.36-4C93.38,179.52,93.34,179.21,93.3,178.91Z" style="fill: rgb(186, 104, 200); transform-origin: 80.69px 181.375px;" id="el6oncd0e4r7k" class="animable"/><path d="M122.29,178.7c-2.77-.33-5.91-.61-9.36-.78.07.3.15.62.22.94,3.41.18,6.52.46,9.25.79C122.36,179.33,122.33,179,122.29,178.7Z" style="fill: rgb(186, 104, 200); transform-origin: 117.665px 178.785px;" id="elf52ldv7r9ic" class="animable"/><path d="M71.71,164.12c-7.37.6-11.49,4.43-13.8,12.47-2.49,8.61-9.44,32.8-11,41.43-1,5.3-2.51,8.66,2,12.15,5.76,4.47,22.63,16.86,32.81,22.19s26.26,5.43,26.26,5.43L96.76,251l-3-3.94L64.94,220.84l9-31.07S79.88,170.52,71.71,164.12Z" style="fill: rgb(255, 189, 167); transform-origin: 76.9098px 210.955px;" id="elk1a8ohebz4" class="animable"/><path d="M72.77,163.83c-5,.2-10.79-.05-14.85,10.23s-9.13,31.21-11.16,39.83-3.18,12.69,0,15.48,16.13,11.08,16.13,11.08,4.46-9.77,9.64-12.71l-7.14-7.19,9.33-31.46S80.77,172.39,72.77,163.83Z" style="fill: rgb(186, 104, 200); transform-origin: 60.8477px 202.14px;" id="el39lcofy25yr" class="animable"/><g id="elsonwjefewn"><path d="M72.77,163.83c-5,.2-10.79-.05-14.85,10.23s-9.13,31.21-11.16,39.83-3.18,12.69,0,15.48,16.13,11.08,16.13,11.08,4.46-9.77,9.64-12.71l-7.14-7.19,9.33-31.46S80.77,172.39,72.77,163.83Z" style="fill: rgb(255, 255, 255); opacity: 0.75; transform-origin: 60.8477px 202.14px;" class="animable"/></g><path d="M86.58,242.08l0,1A2.94,2.94,0,0,0,88,245.72l27.83,16.84a2.88,2.88,0,0,0,1.47.43,3,3,0,0,0,1.49-.36l52.36-28.71a3,3,0,0,0,1.54-2.53v-.72L117.32,261Z" style="fill: rgb(186, 104, 200); transform-origin: 129.634px 246.83px;" id="el8bbahvcpmm6" class="animable"/><g id="elgtefmyb0ozo"><g style="opacity: 0.25; transform-origin: 129.634px 246.83px;" class="animable"><path d="M86.58,242.08l0,1A2.94,2.94,0,0,0,88,245.72l27.83,16.84a2.88,2.88,0,0,0,1.47.43,3,3,0,0,0,1.49-.36l52.36-28.71a3,3,0,0,0,1.54-2.53v-.72L117.32,261Z" id="elvjmobfftuwc" class="animable" style="transform-origin: 129.634px 246.83px;"/></g></g><path d="M172.67,230.67l-30.26-18.38a1.8,1.8,0,0,0-1.77,0L86.78,241.79a.39.39,0,0,0,0,.68L117.32,261Z" style="fill: rgb(186, 104, 200); transform-origin: 129.626px 236.529px;" id="elme13lrqrlqn" class="animable"/><g id="elzkpqcyjs8mf"><g style="opacity: 0.15; transform-origin: 129.626px 236.529px;" class="animable"><path d="M172.67,230.67l-30.26-18.38a1.8,1.8,0,0,0-1.77,0L86.78,241.79a.39.39,0,0,0,0,.68L117.32,261Z" id="el676c328xar7" class="animable" style="transform-origin: 129.626px 236.529px;"/></g></g><polygon points="117.57 258.14 101.25 248.24 149.73 221.66 166.15 231.52 117.57 258.14" style="fill: rgb(69, 90, 100); transform-origin: 133.7px 239.9px;" id="elthvhz1yftll" class="animable"/><polygon points="109.55 231.71 109.85 231.89 117.85 236.74 132.45 228.74 132.75 228.58 124.45 223.54 109.55 231.71" style="fill: rgb(55, 71, 79); transform-origin: 121.15px 230.14px;" id="elrzgww5looyk" class="animable"/><polygon points="109.85 231.89 117.85 236.74 132.45 228.74 124.44 223.88 109.85 231.89" style="fill: rgb(69, 90, 100); transform-origin: 121.15px 230.31px;" id="ellp58qddvke" class="animable"/><path d="M117.32,261l0,2a3,3,0,0,0,1.49-.36l52.36-28.71a3,3,0,0,0,1.54-2.53v-.72Z" style="fill: rgb(186, 104, 200); transform-origin: 145.015px 246.84px;" id="elfa9ye6hvihf" class="animable"/><g id="elp3cxpwkg449"><g style="opacity: 0.03; transform-origin: 145.015px 246.84px;" class="animable"><path d="M117.32,261l0,2a3,3,0,0,0,1.49-.36l52.36-28.71a3,3,0,0,0,1.54-2.53v-.72Z" style="fill: rgb(255, 255, 255); transform-origin: 145.015px 246.84px;" id="elnwxcbxmfuke" class="animable"/></g></g><g id="elv0ybfp78al"><g style="opacity: 0.4; transform-origin: 145.015px 246.84px;" class="animable"><path d="M117.32,261l0,2a3,3,0,0,0,1.49-.36l52.36-28.71a3,3,0,0,0,1.54-2.53v-.72Z" id="elljrpcnmo6gc" class="animable" style="transform-origin: 145.015px 246.84px;"/></g></g><path d="M118.14,261.48a3.48,3.48,0,0,0,3-.17l52.14-28.59a3.5,3.5,0,0,0,1.75-2.41l6.38-33.48a2.76,2.76,0,0,0,.06-.57,3.53,3.53,0,0,0-1-2.52l-54.18,29.72a2.61,2.61,0,0,0-1.3,1.78Z" style="fill: rgb(186, 104, 200); transform-origin: 149.805px 227.741px;" id="el95umk0fdfz6" class="animable"/><g id="el4s2xxjvdswn"><g style="opacity: 0.3; transform-origin: 149.805px 227.741px;" class="animable"><path d="M118.14,261.48a3.48,3.48,0,0,0,3-.17l52.14-28.59a3.5,3.5,0,0,0,1.75-2.41l6.38-33.48a2.76,2.76,0,0,0,.06-.57,3.53,3.53,0,0,0-1-2.52l-54.18,29.72a2.61,2.61,0,0,0-1.3,1.78Z" id="elxdstezxrfna" class="animable" style="transform-origin: 149.805px 227.741px;"/></g></g><path d="M117.32,261l.34.21c.16.09.32.18.48.25L125,225.24a2.61,2.61,0,0,1,1.3-1.78l54.18-29.72a3.91,3.91,0,0,0-.7-.56L125.52,223a2.61,2.61,0,0,0-1.3,1.78Z" style="fill: rgb(186, 104, 200); transform-origin: 148.9px 227.32px;" id="el9gbw6kwsf3m" class="animable"/><g id="elb4wekzvh21e"><g style="opacity: 0.1; transform-origin: 148.9px 227.32px;" class="animable"><path d="M117.32,261l.34.21c.16.09.32.18.48.25L125,225.24a2.61,2.61,0,0,1,1.3-1.78l54.18-29.72a3.91,3.91,0,0,0-.7-.56L125.52,223a2.61,2.61,0,0,0-1.3,1.78Z" id="elc28mervcdr9" class="animable" style="transform-origin: 148.9px 227.32px;"/></g></g><g id="elzcbxs2ab71b"><path d="M125.54,224.14l-.81-.5a2.6,2.6,0,0,0-.51,1.09L117.32,261l.34.21c.16.09.32.18.48.25L125,225.24A2.59,2.59,0,0,1,125.54,224.14Z" style="opacity: 0.1; transform-origin: 121.43px 242.55px;" class="animable"/></g><path d="M147.82,231.09c.42-2.24,2.81-5.18,5.33-6.56s4.22-.68,3.79,1.56-2.81,5.18-5.33,6.56S147.39,233.33,147.82,231.09Z" style="fill: rgb(69, 90, 100); transform-origin: 152.38px 228.59px;" id="elv03aifyh6fm" class="animable"/><path d="M84.91,239c3,2.58,7.5.5,11.37,1s7.18,1.41,10.28,1.32,4.64.54,2.47,3-8.42,1.06-10.1,1.81a3.63,3.63,0,0,0-.78,5.74c1.82,2.12-10.39-2-12-4.49S82.69,239.33,84.91,239Z" style="fill: rgb(255, 189, 167); transform-origin: 96.9655px 245.728px;" id="elxx1ytfhf2ri" class="animable"/></g></g><g id="freepik--Shines--inject-2" class="animable" style="transform-origin: 246.172px 145.309px;"><g id="freepik--Shine--inject-2" class="animable" style="transform-origin: 462.419px 200.911px;"><path d="M451.53,197.69a.61.61,0,0,1-.21-.8l.27-.53a3.1,3.1,0,0,0-.9-4l-.48-.36a.61.61,0,0,1,.65-1l.53.27h0a3.1,3.1,0,0,0,4-.9l.36-.48a.61.61,0,0,1,.82-.15h0a.61.61,0,0,1,.22.8l-.28.53a3.1,3.1,0,0,0,.9,4l.48.36a.61.61,0,0,1-.65,1l-.53-.27a3.1,3.1,0,0,0-4,.9l-.36.48a.61.61,0,0,1-.82.15Zm1.16-4.82a4.28,4.28,0,0,1,.5,2.19,4.28,4.28,0,0,1,2.19-.5,4.38,4.38,0,0,1-.5-2.19A4.28,4.28,0,0,1,452.69,192.87Z" style="fill: rgb(186, 104, 200); transform-origin: 454.05px 193.715px;" id="elexx6cmiyp0w" class="animable"/><path d="M468.77,197.24A3.94,3.94,0,1,1,474.2,196,4,4,0,0,1,468.77,197.24Zm3.54-5.64a2.72,2.72,0,1,0,.85,3.74A2.72,2.72,0,0,0,472.31,191.6Z" style="fill: rgb(186, 104, 200); transform-origin: 470.864px 193.892px;" id="elr8o1qol2dq" class="animable"/><path d="M465.76,208.17a.62.62,0,0,1-.2-.85l1.1-1.73a.6.6,0,0,1,.84-.19.61.61,0,0,1,.2.84L466.6,208A.6.6,0,0,1,465.76,208.17Z" style="fill: rgb(186, 104, 200); transform-origin: 466.63px 206.788px;" id="elsilmvykywkq" class="animable"/><path d="M464.07,208.56l-1.74-1.1a.61.61,0,0,1,.65-1l1.74,1.1a.61.61,0,0,1-.65,1Z" style="fill: rgb(186, 104, 200); transform-origin: 463.525px 207.51px;" id="elrmoqbntebwm" class="animable"/><path d="M463.29,212.08a.61.61,0,0,1-.19-.84l1.09-1.74a.61.61,0,0,1,.85-.19.6.6,0,0,1,.19.84l-1.09,1.74A.61.61,0,0,1,463.29,212.08Z" style="fill: rgb(186, 104, 200); transform-origin: 464.167px 210.695px;" id="elj6r97d37l" class="animable"/><path d="M468,211l-1.74-1.09a.63.63,0,0,1-.19-.85.61.61,0,0,1,.85-.19l1.73,1.09a.62.62,0,0,1,.2.85A.63.63,0,0,1,468,211Z" style="fill: rgb(186, 104, 200); transform-origin: 467.46px 209.931px;" id="el5v9haemzxtb" class="animable"/></g><g id="freepik--shine--inject-2" class="animable" style="transform-origin: 29.3467px 194.533px;"><path d="M33.19,203.11a.6.6,0,0,1-.63.54l-.6,0a3.1,3.1,0,0,0-3.2,2.52l-.11.58a.62.62,0,0,1-1.22-.14l0-.6h0a3.1,3.1,0,0,0-2.52-3.2l-.58-.12a.61.61,0,0,1-.49-.67h0a.61.61,0,0,1,.64-.54l.59,0a3.1,3.1,0,0,0,3.2-2.52l.12-.58a.61.61,0,0,1,1.21.14l0,.6a3.1,3.1,0,0,0,2.52,3.2l.58.12a.6.6,0,0,1,.49.67Zm-4.85,1a4.32,4.32,0,0,1,1.77-1.4A4.25,4.25,0,0,1,28.72,201a4.32,4.32,0,0,1-1.77,1.4A4.25,4.25,0,0,1,28.34,204.14Z" style="fill: rgb(186, 104, 200); transform-origin: 28.5155px 202.544px;" id="elvakn1kkmts9" class="animable"/><path d="M25.39,187.74A3.94,3.94,0,1,1,22,183.36,3.93,3.93,0,0,1,25.39,187.74Zm-6.6-.79a2.71,2.71,0,1,0,3-2.37A2.7,2.7,0,0,0,18.79,187Z" style="fill: rgb(186, 104, 200); transform-origin: 21.4793px 187.265px;" id="elqapzb549n" class="animable"/><path d="M36.56,185.77a.61.61,0,0,1-.68.54l-2-.25a.61.61,0,0,1,.15-1.22l2,.25A.61.61,0,0,1,36.56,185.77Z" style="fill: rgb(186, 104, 200); transform-origin: 34.9532px 185.575px;" id="elhdvmhkanew5" class="animable"/><path d="M37.63,187.13l-.24,2a.61.61,0,1,1-1.22-.15l.24-2a.62.62,0,0,1,.69-.54A.61.61,0,0,1,37.63,187.13Z" style="fill: rgb(186, 104, 200); transform-origin: 36.9006px 188.053px;" id="elzhks49p2ge" class="animable"/><path d="M41.15,186.32a.61.61,0,0,1-.68.53l-2-.24a.61.61,0,0,1,.15-1.22l2,.24A.62.62,0,0,1,41.15,186.32Z" style="fill: rgb(186, 104, 200); transform-origin: 39.5432px 186.12px;" id="elpb8imcuses" class="animable"/><path d="M38.18,182.54l-.24,2a.61.61,0,0,1-1.22-.15l.24-2a.61.61,0,0,1,1.22.15Z" style="fill: rgb(186, 104, 200); transform-origin: 37.45px 183.465px;" id="eloz8pugqxow" class="animable"/></g><g id="freepik--shine--inject-2" class="animable" style="transform-origin: 419.917px 91.8247px;"><path d="M429.93,88.78a.63.63,0,0,1-.73-.42l-.17-.57a3.13,3.13,0,0,0-3.46-2.16l-.59.09a.61.61,0,0,1-.27-1.19l.57-.18h0a3.12,3.12,0,0,0,2.16-3.45l-.09-.59a.61.61,0,0,1,1.19-.28l.18.57a3.11,3.11,0,0,0,3.45,2.16l.59-.09a.61.61,0,0,1,.28,1.19l-.57.18a3.11,3.11,0,0,0-2.16,3.46l.09.58A.63.63,0,0,1,429.93,88.78Zm-2.61-4.23a4.41,4.41,0,0,1,1.91,1.2,4.3,4.3,0,0,1,1.19-1.91,4.32,4.32,0,0,1-1.91-1.2A4.24,4.24,0,0,1,427.32,84.55Z" style="fill: rgb(186, 104, 200); transform-origin: 428.873px 84.1763px;" id="elv22fvvd9s08" class="animable"/><path d="M425.82,104a3.94,3.94,0,1,1,3-4.73A3.94,3.94,0,0,1,425.82,104Zm-1.49-6.48a2.71,2.71,0,1,0,3.25,2A2.72,2.72,0,0,0,424.33,97.47Z" style="fill: rgb(186, 104, 200); transform-origin: 424.98px 100.151px;" id="elijf4dfs7weh" class="animable"/><path d="M410.07,90.15a.62.62,0,0,1-.74-.46l-.46-2a.62.62,0,1,1,1.2-.28l.46,2A.62.62,0,0,1,410.07,90.15Z" style="fill: rgb(186, 104, 200); transform-origin: 409.69px 88.514px;" id="el1sscrmhdolb" class="animable"/><path d="M409.15,91.62l-2,.46a.62.62,0,1,1-.28-1.2l2-.46a.62.62,0,0,1,.28,1.2Z" style="fill: rgb(186, 104, 200); transform-origin: 407.943px 91.2657px;" id="elmd5ij024kw" class="animable"/><path d="M411.11,94.65a.62.62,0,0,1-.74-.46l-.46-2a.6.6,0,0,1,.46-.73.61.61,0,0,1,.74.46l.46,2A.61.61,0,0,1,411.11,94.65Z" style="fill: rgb(186, 104, 200); transform-origin: 410.739px 93.054px;" id="el1z8dn9j0li4" class="animable"/><path d="M413.65,90.58l-2,.46a.62.62,0,0,1-.74-.46.62.62,0,0,1,.46-.74l2-.46a.62.62,0,0,1,.74.46A.62.62,0,0,1,413.65,90.58Z" style="fill: rgb(186, 104, 200); transform-origin: 412.51px 90.21px;" id="elyd4umttbzqo" class="animable"/></g><g id="freepik--shine--inject-2" class="animable" style="transform-origin: 76.5839px 92.1438px;"><path d="M69.3,85.64v0a.63.63,0,0,1-.84,0L68,85.22h0A3.1,3.1,0,0,0,64,85l-.48.35a.61.61,0,0,1-.83-.08.61.61,0,0,1,0-.83l.42-.43a3.12,3.12,0,0,0,.25-4.07L63,79.44a.62.62,0,0,1,.08-.83.59.59,0,0,1,.83,0l.43.41a3.11,3.11,0,0,0,4.07.26l.47-.36a.61.61,0,0,1,.83.09.59.59,0,0,1,0,.83l-.41.43A3.09,3.09,0,0,0,69,84.35l.36.48A.6.6,0,0,1,69.3,85.64ZM65,83.19a4.2,4.2,0,0,1,2.25.14,4.4,4.4,0,0,1,.14-2.25,4.41,4.41,0,0,1-2.25-.14A4.2,4.2,0,0,1,65,83.19Z" style="fill: rgb(186, 104, 200); transform-origin: 66.2039px 82.1199px;" id="eln71iofuvsar" class="animable"/><path d="M89.35,93.47a3.9,3.9,0,0,1-2.18,1,3.95,3.95,0,1,1,2.18-1Zm-4.58-4.82a2.35,2.35,0,0,0-.3.33,2.73,2.73,0,0,0,.52,3.8,2.71,2.71,0,1,0,1.28-4.85A2.65,2.65,0,0,0,84.77,88.65Z" style="fill: rgb(186, 104, 200); transform-origin: 86.6908px 90.5492px;" id="elkfdk2lsd9l" class="animable"/><path d="M68.17,104.08h0l-1.51,1.39a.62.62,0,1,1-.83-.91l1.51-1.39a.6.6,0,0,1,.86,0A.61.61,0,0,1,68.17,104.08Z" style="fill: rgb(186, 104, 200); transform-origin: 66.9806px 104.336px;" id="elddb8mptv60r" class="animable"/><path d="M71.28,105.67h0a.62.62,0,0,1-.87,0L69,104.13a.62.62,0,0,1,0-.87.61.61,0,0,1,.87,0l1.38,1.51A.6.6,0,0,1,71.28,105.67Z" style="fill: rgb(186, 104, 200); transform-origin: 70.1452px 104.463px;" id="elqg2vdd6haok" class="animable"/><path d="M71.57,101h0l-1.51,1.39a.62.62,0,0,1-.87,0,.64.64,0,0,1,0-.87l1.51-1.38a.61.61,0,1,1,.84.89Z" style="fill: rgb(186, 104, 200); transform-origin: 70.3757px 101.271px;" id="elu0twq1uk05r" class="animable"/><path d="M68.16,102.26h0a.62.62,0,0,1-.87,0l-1.39-1.51a.62.62,0,1,1,.91-.83l1.39,1.51A.62.62,0,0,1,68.16,102.26Z" style="fill: rgb(186, 104, 200); transform-origin: 67.0135px 101.05px;" id="el1uwthgly0sp" class="animable"/></g></g><defs>     <filter id="active" height="200%">         <feMorphology in="SourceAlpha" result="DILATED" operator="dilate" radius="2"/>                <feFlood flood-color="#32DFEC" flood-opacity="1" result="PINK"/>        <feComposite in="PINK" in2="DILATED" operator="in" result="OUTLINE"/>        <feMerge>            <feMergeNode in="OUTLINE"/>            <feMergeNode in="SourceGraphic"/>        </feMerge>    </filter>    <filter id="hover" height="200%">        <feMorphology in="SourceAlpha" result="DILATED" operator="dilate" radius="2"/>                <feFlood flood-color="#ff0000" flood-opacity="0.5" result="PINK"/>        <feComposite in="PINK" in2="DILATED" operator="in" result="OUTLINE"/>        <feMerge>            <feMergeNode in="OUTLINE"/>            <feMergeNode in="SourceGraphic"/>        </feMerge>            <feColorMatrix type="matrix" values="0   0   0   0   0                0   1   0   0   0                0   0   0   0   0                0   0   0   1   0 "/>    </filter></defs></svg>